<svg xmlns="http://www.w3.org/2000/svg" width="32" height="32" viewBox="0 0 32 32" fill="none">
  <path fill-rule="evenodd" clip-rule="evenodd" d="M15.8493 6.92133C17.9526 6.92133 19.8838 7.64151 21.4255 8.83918L26.1572 4.32453C23.4061 1.89917 19.8049 0.416015 15.8493 0.416015C9.85517 0.416015 4.65703 3.79866 2.04103 8.75564L7.30253 12.9098C8.57711 9.41856 11.9172 6.92134 15.8493 6.92134L15.8493 6.92133Z" fill="#F5594E"/>
  <path fill-rule="evenodd" clip-rule="evenodd" d="M31.3287 17.9788C31.4101 17.339 31.4639 16.6864 31.4639 16.0243C31.4639 14.9078 31.342 13.8207 31.1194 12.7706H15.8514V19.278H24.2902C23.6075 21.0529 22.392 22.5548 20.8448 23.5982L26.1263 27.7692C28.9261 25.3108 30.842 21.8684 31.3287 17.9789V17.9788Z" fill="#39A0F4"/>
  <path fill-rule="evenodd" clip-rule="evenodd" d="M6.7364 16.0295C6.7364 14.9319 6.94034 13.8845 7.29577 12.91L2.03737 8.75504C0.891325 10.9284 0.235622 13.4011 0.235622 16.0295C0.235622 18.6285 0.879272 21.0737 2.00152 23.2295L7.26657 19.0692C6.92939 18.1173 6.7364 17.0971 6.7364 16.0295V16.0295Z" fill="#FFC721"/>
  <path fill-rule="evenodd" clip-rule="evenodd" d="M15.8539 25.1299C11.8915 25.1299 8.5296 22.5944 7.27717 19.0608L2.00855 23.221C4.61196 28.2184 9.82984 31.6361 15.8539 31.6361C19.7931 31.6361 23.3853 30.1724 26.1288 27.764L20.8473 23.5937C19.4203 24.5559 17.7123 25.1299 15.8539 25.1299V25.1299Z" fill="#00CA6F"/>
  <path opacity="0.1" fill-rule="evenodd" clip-rule="evenodd" d="M15.8565 31.322C11.2615 31.322 7.12985 29.4263 4.2087 26.406C7.06822 29.6149 11.2201 31.6473 15.8565 31.6473C20.4501 31.6473 24.5675 29.655 27.4206 26.4963C24.5082 29.4676 20.4078 31.322 15.8565 31.322Z" fill="white"/>
  <path opacity="0.1" fill-rule="evenodd" clip-rule="evenodd" d="M15.8514 18.96V19.2901H24.2921L24.4239 18.96H15.8514Z" fill="white"/>
  <path fill-rule="evenodd" clip-rule="evenodd" d="M31.4529 16.2148C31.4538 16.1502 31.4591 16.0866 31.4591 16.0217C31.4591 16.0034 31.4566 15.9856 31.4566 15.9673C31.4559 16.05 31.4523 16.1318 31.4529 16.2148Z" fill="#262626"/>
  <path opacity="0.2" fill-rule="evenodd" clip-rule="evenodd" d="M15.8514 12.7706V13.1006H31.1833C31.1628 12.9917 31.1404 12.8787 31.1178 12.7706H15.8514Z" fill="#0D0D0D"/>
  <path fill-rule="evenodd" clip-rule="evenodd" d="M31.1162 12.776H15.8482V19.2812H24.287C22.9747 22.692 19.7217 25.1359 15.8482 25.1359C10.8184 25.1359 6.74086 21.0584 6.74086 16.0286C6.74086 10.9987 10.8184 6.92126 15.8482 6.92126C17.6721 6.92126 19.3531 7.48157 20.7772 8.40535C20.9952 8.54702 21.2201 8.68003 21.4249 8.83909L26.157 4.3245L26.0502 4.24238C23.3122 1.86938 19.7559 0.416024 15.8482 0.416024C7.22558 0.416024 0.235623 7.40598 0.235623 16.0286C0.235623 24.6511 7.22558 31.6411 15.8482 31.6411C23.8076 31.6411 30.362 25.6807 31.3256 17.9825C31.4069 17.3429 31.4607 16.6904 31.4607 16.0286C31.4607 14.9125 31.3388 13.8257 31.1162 12.776V12.776Z" fill="url(#paint0_linear_6_697)"/>
  <path opacity="0.1" fill-rule="evenodd" clip-rule="evenodd" d="M20.7778 8.07832C19.3536 7.15458 17.6727 6.59429 15.8487 6.59429C10.8189 6.59429 6.74139 10.6716 6.74139 15.7012C6.74139 15.7561 6.74213 15.799 6.74308 15.8537C6.83082 10.8999 10.8738 6.91954 15.8487 6.91954C17.6726 6.91954 19.3537 7.47982 20.7778 8.40357C20.9958 8.54523 21.2207 8.67823 21.4255 8.83728L26.1576 4.32289L21.4255 8.51204C21.2207 8.35298 20.9958 8.21997 20.7778 8.07832H20.7778Z" fill="white"/>
  <path opacity="0.2" fill-rule="evenodd" clip-rule="evenodd" d="M15.8474 0.741234C19.7178 0.741234 23.2407 2.17011 25.9681 4.50287L26.1556 4.32398L26.0125 4.19933C23.2746 1.82664 19.7548 0.416015 15.8474 0.416015C7.22521 0.416015 0.235631 7.40509 0.235631 16.0266C0.235631 16.0815 0.243256 16.1344 0.24381 16.1892C0.331953 7.64352 7.28008 0.741234 15.8474 0.741234Z" fill="#0D0D0D"/>
  <defs>
    <linearGradient id="paint0_linear_6_697" x1="0.233127" y1="31.6441" x2="31.4641" y2="31.6441" gradientUnits="userSpaceOnUse">
      <stop stop-color="white" stop-opacity="0.2"/>
      <stop offset="1" stop-color="white" stop-opacity="0.01"/>
    </linearGradient>
  </defs>
</svg>