<svg xmlns="http://www.w3.org/2000/svg" width="32" height="31" viewBox="0 0 32 31" fill="none">
  <path d="M29.4391 15.6725C29.4391 14.6878 29.3508 13.741 29.1867 12.832H16.1079V18.21H23.5815C23.2532 19.9395 22.2686 21.4039 20.7915 22.3886V25.8855H25.2984C27.9242 23.4617 29.4391 19.9016 29.4391 15.6725Z" fill="#4285F4"/>
  <path d="M16.1065 29.2473C19.8559 29.2473 22.9994 28.0101 25.297 25.8893L20.7901 22.3923C19.5529 23.2255 17.9749 23.7305 16.1065 23.7305C12.496 23.7305 9.42827 21.294 8.32995 18.0117H3.70947V21.597C5.99446 26.1291 10.6781 29.2473 16.1065 29.2473Z" fill="#34A853"/>
  <path d="M8.32743 17.999C8.0497 17.1658 7.88558 16.2821 7.88558 15.3605C7.88558 14.4389 8.0497 13.5552 8.32743 12.722V9.13672H3.70695C2.76013 11.0051 2.21729 13.1134 2.21729 15.3605C2.21729 17.6076 2.76013 19.7159 3.70695 21.5843L7.30487 18.7817L8.32743 17.999Z" fill="#FBBC05"/>
  <path d="M16.1065 7.00209C18.1516 7.00209 19.9695 7.70905 21.4213 9.07247L25.398 5.09582C22.9867 2.8487 19.8559 1.47266 16.1065 1.47266C10.6781 1.47266 5.99447 4.59085 3.70947 9.13559L8.32996 12.7209C9.42827 9.43857 12.496 7.00209 16.1065 7.00209Z" fill="#EA4335"/>
</svg>