<svg xmlns="http://www.w3.org/2000/svg" width="15" height="16" viewBox="0 0 15 16" fill="none">
  <path d="M7.23383 1.7157C7.42569 1.35447 7.9433 1.35447 8.13516 1.7157L9.75955 4.77415C9.83331 4.91302 9.96697 5.01013 10.1218 5.03736L13.5326 5.63715C13.9354 5.70799 14.0953 6.20026 13.8111 6.49436L11.4043 8.98436C11.295 9.09742 11.244 9.25455 11.2659 9.41025L11.7495 12.8394C11.8066 13.2444 11.3878 13.5486 11.0203 13.3692L7.9084 11.8496C7.7671 11.7806 7.60188 11.7806 7.46059 11.8496L4.34872 13.3692C3.98117 13.5486 3.56241 13.2444 3.61953 12.8394L4.10307 9.41025C4.12502 9.25455 4.07397 9.09742 3.96469 8.98436L1.5579 6.49436C1.27364 6.20026 1.43358 5.70799 1.83643 5.63715L5.24715 5.03736C5.40201 5.01013 5.53567 4.91302 5.60943 4.77415L7.23383 1.7157Z" fill="#6A6A6A"/>
  <mask id="mask0_404_616" style="mask-type:alpha" maskUnits="userSpaceOnUse" x="0" y="0" width="9" height="16">
    <rect x="0.540527" y="0.867188" width="8.41967" height="14.2879" fill="#D9D9D9"/>
  </mask>
  <g mask="url(#mask0_404_616)">
    <path d="M7.23383 1.7157C7.42569 1.35447 7.9433 1.35447 8.13516 1.7157L9.75955 4.77415C9.83331 4.91302 9.96697 5.01013 10.1218 5.03736L13.5326 5.63715C13.9354 5.70799 14.0953 6.20026 13.8111 6.49436L11.4043 8.98436C11.295 9.09742 11.244 9.25455 11.2659 9.41025L11.7495 12.8394C11.8066 13.2444 11.3878 13.5486 11.0203 13.3692L7.9084 11.8496C7.7671 11.7806 7.60188 11.7806 7.46059 11.8496L4.34872 13.3692C3.98117 13.5486 3.56241 13.2444 3.61953 12.8394L4.10307 9.41025C4.12502 9.25455 4.07397 9.09742 3.96469 8.98436L1.5579 6.49436C1.27364 6.20026 1.43358 5.70799 1.83643 5.63715L5.24715 5.03736C5.40201 5.01013 5.53567 4.91302 5.60943 4.77415L7.23383 1.7157Z" fill="#FCD503"/>
  </g>
</svg>