<svg xmlns="http://www.w3.org/2000/svg" width="49" height="49" viewBox="0 0 49 49" fill="none">
  <g opacity="0.15">
    <path d="M42.5 42.5401C36.5 42.5401 28.5 40.5401 28.5 26.5401V10.5401C28.5 8.0401 30.012 6.5061 32.5 6.5401H40.5C43 6.5401 44.5 8.0401 44.5 10.4841V22.5401C44.5 25.0401 43 26.5401 40.5 26.5401C38.5 26.5401 38.5 26.5401 38.5 28.5401V30.5401C38.5 32.5401 40.5 34.5401 42.5 34.5401C44.5 34.5401 44.5 34.5561 44.5 36.6021V40.5401C44.5 42.5401 44.5 42.5401 42.5 42.5401Z" fill="#5840FF"/>
    <path d="M18.5 42.5401C12.5 42.5401 4.5 40.5401 4.5 26.5401V10.5401C4.5 8.0401 6.014 6.5061 8.5 6.5401H16.5C19 6.5401 20.5 8.0401 20.5 10.4841V22.5401C20.5 25.0401 19 26.5401 16.5 26.5401H15C15 31.0401 14.5 34.5401 20.5 34.5401V40.5401C20.5 42.5401 20.5 42.5401 18.5 42.5401Z" fill="#5840FF"/>
  </g>
</svg>