<svg xmlns="http://www.w3.org/2000/svg" width="49" height="49" viewBox="0 0 49 49" fill="none">
  <g opacity="0.15">
    <path d="M6.5 42.5401C12.5 42.5401 20.5 40.5401 20.5 26.5401V10.5401C20.5 8.0401 18.988 6.5061 16.5 6.5401H8.5C6 6.5401 4.5 8.0401 4.5 10.4841V22.5401C4.5 25.0401 6 26.5401 8.5 26.5401C10.5 26.5401 10.5 26.5401 10.5 28.5401V30.5401C10.5 32.5401 8.5 34.5401 6.5 34.5401C4.5 34.5401 4.5 34.5561 4.5 36.6021V40.5401C4.5 42.5401 4.5 42.5401 6.5 42.5401Z" fill="#5840FF"/>
    <path d="M30.5 42.5401C36.5 42.5401 44.5 40.5401 44.5 26.5401V10.5401C44.5 8.0401 42.986 6.5061 40.5 6.5401H32.5C30 6.5401 28.5 8.0401 28.5 10.4841V22.5401C28.5 25.0401 30 26.5401 32.5 26.5401H34C34 31.0401 34.5 34.5401 28.5 34.5401V40.5401C28.5 42.5401 28.5 42.5401 30.5 42.5401Z" fill="#5840FF"/>
  </g>
</svg>