<svg xmlns="http://www.w3.org/2000/svg" width="82" height="100" viewBox="0 0 82 100" fill="none">
  <g filter="url(#filter0_d_6_714)">
    <path fill-rule="evenodd" clip-rule="evenodd" d="M18.1953 47.4071C18.1953 29.6993 32.5504 15.3442 50.2582 15.3442C67.966 15.3442 82.3211 29.6993 82.3211 47.4071C82.3211 65.115 67.966 79.47 50.2582 79.47C32.5504 79.47 18.1953 65.115 18.1953 47.4071Z" fill="#0D0D0D"/>
  </g>
  <path fill-rule="evenodd" clip-rule="evenodd" d="M61.0087 34.3241H60.4146C60.1384 34.3241 59.8605 34.3528 59.589 34.4103L35.4371 39.5319C33.6102 39.919 32.2831 41.5562 32.2831 43.4242C32.2831 45.6178 34.0685 47.4027 36.2627 47.4027H36.8568C37.133 47.4027 37.4109 47.3739 37.6824 47.3165L61.8343 42.1949C63.6613 41.8077 64.9883 40.1705 64.9883 38.3026C64.9883 36.109 63.2029 34.3241 61.0087 34.3241Z" fill="#89D3DE"/>
  <path fill-rule="evenodd" clip-rule="evenodd" d="M64.2692 47.3989H63.6751C63.3989 47.3989 63.121 47.4277 62.8495 47.4851L38.6976 52.6067C36.8707 52.9939 35.5436 54.6311 35.5436 56.499C35.5436 58.6926 37.329 60.4775 39.5232 60.4775H40.1173C40.3935 60.4775 40.6714 60.4488 40.9429 60.3913L65.0948 55.2697C66.9218 54.8825 68.2488 53.2454 68.2488 51.3774C68.2488 49.1838 66.4634 47.3989 64.2692 47.3989H64.2692Z" fill="#E4346B"/>
  <path fill-rule="evenodd" clip-rule="evenodd" d="M63.2576 56.7227L58.1361 32.5708C57.748 30.7431 56.1117 29.4169 54.2437 29.4169C52.0501 29.4169 50.2652 31.2022 50.2652 33.3964V33.9913C50.2652 34.2715 50.2939 34.5502 50.3514 34.8161L55.473 58.968C55.861 60.7958 57.4973 62.122 59.3653 62.122C61.5589 62.122 63.3438 60.3367 63.3438 58.1425V57.5476C63.3438 57.2674 63.315 56.9886 63.2576 56.7227V56.7227Z" fill="#EEBB43"/>
  <path fill-rule="evenodd" clip-rule="evenodd" d="M50.1828 59.9832L45.0611 35.8313C44.6732 34.0036 43.0368 32.6773 41.1688 32.6773C38.9752 32.6773 37.1903 34.4627 37.1903 36.6569V37.2517C37.1903 37.532 37.2191 37.8107 37.2765 38.0766L42.3981 62.2285C42.7861 64.0563 44.4225 65.3825 46.2904 65.3825C48.484 65.3825 50.2689 63.5971 50.2689 61.4029V60.8081C50.2689 60.5279 50.2402 60.2491 50.1828 59.9832H50.1828Z" fill="#77C9AD"/>
  <path fill-rule="evenodd" clip-rule="evenodd" d="M41.9613 60.1831L40.2828 52.2697L48.1877 50.5929L49.8662 58.5063L41.9613 60.1831Z" fill="#E8CCE8"/>
  <path fill-rule="evenodd" clip-rule="evenodd" d="M55.1334 57.3902L53.4567 49.4851L61.3702 47.8066L63.047 55.7117L55.1334 57.3902Z" fill="#DE353A"/>
  <path fill-rule="evenodd" clip-rule="evenodd" d="M39.1586 46.9948L37.4818 39.0899L45.3952 37.4112L47.072 45.3161L39.1586 46.9948Z" fill="#2BA085"/>
  <path fill-rule="evenodd" clip-rule="evenodd" d="M52.3486 44.2159L50.67 36.3025L58.5749 34.6256L60.2536 42.539L52.3486 44.2159Z" fill="#92AE43"/>
  <path fill-rule="evenodd" clip-rule="evenodd" d="M48.1972 50.5986L47.0782 45.3231L52.3537 44.2042L53.4727 49.4796L48.1972 50.5986ZM64.2945 47.4124H63.7004C63.4241 47.4124 63.1462 47.4411 62.8748 47.4986L61.3905 47.8134L60.2716 42.538L61.8496 42.2033C63.6765 41.816 65.0035 40.1784 65.0035 38.31C65.0035 36.1159 63.2181 34.3305 61.024 34.3305H60.4299C60.1536 34.3305 59.8758 34.3592 59.6043 34.4167L58.5945 34.6309L58.1591 32.5787C57.771 30.751 56.1343 29.4248 54.2659 29.4248C52.0717 29.4248 50.2864 31.2102 50.2864 33.4043V33.9991C50.2864 34.2794 50.3151 34.5581 50.3726 34.8239L50.6874 36.3082L45.412 37.4271L45.0773 35.8492C44.6892 34.0215 43.0524 32.6953 41.184 32.6953C38.9899 32.6953 37.2045 34.4806 37.2045 36.6748V37.2696C37.2045 37.5499 37.2333 37.8285 37.2908 38.0944L37.5049 39.1043L35.4527 39.5396C33.6259 39.9269 32.2988 41.5645 32.2988 43.4329C32.2988 45.627 34.0842 47.4124 36.2783 47.4124H36.8724C37.1486 47.4124 37.4265 47.3836 37.698 47.3261L39.1822 47.0113L40.3011 52.2867L38.7232 52.6215C36.8963 53.0088 35.5693 54.6463 35.5693 56.5147C35.5693 58.7089 37.3547 60.4942 39.5488 60.4942H40.1429C40.4191 60.4942 40.697 60.4655 40.9685 60.408L41.9783 60.1938L42.4137 62.246C42.8017 64.0737 44.4385 65.3999 46.3069 65.3999C48.5011 65.3999 50.2864 63.6146 50.2864 61.4204V60.8256C50.2864 60.5453 50.2576 60.2667 50.2002 60.0008L49.8854 58.5166L55.1607 57.3976L55.4955 58.9756C55.8836 60.8033 57.5203 62.1295 59.3888 62.1295C61.5829 62.1295 63.3683 60.3441 63.3683 58.15V57.5551C63.3683 57.2749 63.3395 56.9962 63.282 56.7303L63.0678 55.7205L65.1201 55.2851C66.947 54.8978 68.274 53.2603 68.274 51.3919C68.274 49.1977 66.4886 47.4124 64.2945 47.4124L64.2945 47.4124Z" fill="url(#paint0_linear_6_714)"/>
  <defs>
    <filter id="filter0_d_6_714" x="0.864021" y="0.612641" width="98.7886" height="98.7886" filterUnits="userSpaceOnUse" color-interpolation-filters="sRGB">
      <feFlood flood-opacity="0" result="BackgroundImageFix"/>
      <feColorMatrix in="SourceAlpha" type="matrix" values="0 0 0 0 0 0 0 0 0 0 0 0 0 0 0 0 0 0 127 0" result="hardAlpha"/>
      <feOffset dy="2.59969"/>
      <feGaussianBlur stdDeviation="8.66565"/>
      <feColorMatrix type="matrix" values="0 0 0 0 0 0 0 0 0 0 0 0 0 0 0 0 0 0 0.11 0"/>
      <feBlend mode="normal" in2="BackgroundImageFix" result="effect1_dropShadow_6_714"/>
      <feBlend mode="normal" in="SourceGraphic" in2="effect1_dropShadow_6_714" result="shape"/>
    </filter>
    <linearGradient id="paint0_linear_6_714" x1="25.893" y1="56.2947" x2="59.1691" y2="71.8062" gradientUnits="userSpaceOnUse">
      <stop stop-color="white" stop-opacity="0.2"/>
      <stop offset="1" stop-color="white" stop-opacity="0.01"/>
    </linearGradient>
  </defs>
</svg>