<svg xmlns="http://www.w3.org/2000/svg" width="15" height="16" viewBox="0 0 15 16" fill="none">
  <path d="M7.07565 1.78695C7.26328 1.40931 7.80199 1.40931 7.98962 1.78695L9.522 4.8711C9.5963 5.02065 9.73907 5.12438 9.90425 5.14883L13.311 5.65315C13.7281 5.7149 13.8946 6.22724 13.5934 6.52238L11.1337 8.93282C11.0145 9.04969 10.9599 9.21753 10.9877 9.38219L11.5608 12.778C11.631 13.1938 11.1952 13.5105 10.8214 13.3153L7.76889 11.7208C7.62087 11.6435 7.4444 11.6435 7.29639 11.7208L4.24385 13.3153C3.87008 13.5105 3.43426 13.1938 3.50443 12.778L4.07754 9.38219C4.10532 9.21753 4.05079 9.04969 3.93153 8.93282L1.47185 6.52238C1.17067 6.22724 1.33714 5.7149 1.75428 5.65315L5.16102 5.14883C5.3262 5.12438 5.46897 5.02065 5.54328 4.8711L7.07565 1.78695Z" fill="#FCD503"/>
</svg>