<svg width="60" height="60" viewBox="0 0 60 60" fill="none" xmlns="http://www.w3.org/2000/svg">
<g id="bxl:wix">
<path id="Vector" d="M33.6457 20.7877C32.6543 21.3132 32.2974 22.1807 32.2974 24.5799C32.2974 24.5799 32.798 24.099 33.5341 23.8289C33.9879 23.6644 34.4154 23.4348 34.8031 23.1473C35.6409 22.5351 35.7574 21.7544 35.7574 20.4308C35.7574 20.4308 34.3868 20.3912 33.6457 20.7877ZM27.8236 21.3553C27.0305 22.0642 26.7876 23.187 26.7876 23.187L24.1158 33.4505L21.9124 25.0359C21.6967 24.1561 21.3026 23.0333 20.6855 22.2922C19.9171 21.3553 18.3458 21.2983 18.1698 21.2983C18.0012 21.2983 16.4125 21.3553 15.6268 22.3071C15.0171 23.0581 14.6205 24.1684 14.4049 25.0533L12.2015 33.4679L9.5594 23.1894C9.5594 23.1894 9.33138 22.0518 8.52338 21.3578C7.21224 20.2053 5.2666 20.4482 5.2666 20.4482L10.3426 39.6914C10.3426 39.6914 12.0206 39.8203 12.8583 39.3791C13.9513 38.8239 14.4917 38.3852 15.1609 35.7531C15.7582 33.4232 17.4213 26.5726 17.5749 26.0744C17.6468 25.8315 17.7484 25.2516 18.1723 25.2516C18.6159 25.2516 18.7027 25.8191 18.7696 26.0744C18.9282 26.5577 20.5764 33.4232 21.1886 35.7531C21.8529 38.3679 22.3808 38.7942 23.4912 39.3791C24.3289 39.8203 26.0069 39.6914 26.0069 39.6914L31.0829 20.4606C31.0779 20.4606 29.1273 20.2152 27.8236 21.3553ZM35.7574 23.586C35.7574 23.586 35.4376 24.0693 34.7164 24.4956C34.2504 24.7534 33.8068 24.9368 33.3235 25.1673C32.5229 25.549 32.2974 25.9902 32.2974 26.642V39.6939C32.2974 39.6939 33.5912 39.8501 34.414 39.4361C35.4947 38.8859 35.7351 38.358 35.7549 35.9563L35.7574 23.586ZM48.4276 30.1095L54.8693 20.5052C54.8693 20.5052 52.1528 20.0368 50.802 21.2711C49.9345 22.0518 48.9729 23.4645 48.9729 23.4645L46.6133 26.8998C46.4819 27.0708 46.3555 27.2716 46.1176 27.2716C45.8722 27.2716 45.7186 27.0857 45.6169 26.8998L43.2326 23.4745C43.2326 23.4745 42.2784 22.0667 41.3985 21.2834C40.0601 20.0467 37.3312 20.5151 37.3312 20.5151L43.7828 30.0946L37.3312 39.6567C37.3312 39.6567 40.1716 40.026 41.515 38.7892C42.3825 38.0085 43.2202 36.7147 43.2202 36.7147L45.5748 33.2869C45.7062 33.1184 45.8326 32.9226 46.0705 32.9226C46.3184 32.9226 46.4696 33.1085 46.5712 33.2869L48.9307 36.7147C48.9307 36.7147 49.8106 37.9788 50.6657 38.7892C51.9991 40.026 54.7974 39.6567 54.7974 39.6567L48.4276 30.1095Z" fill="black"/>
</g>
</svg>
