<svg width="61" height="60" viewBox="0 0 61 60" fill="none" xmlns="http://www.w3.org/2000/svg">
<g id="devicon:woocommerce-wordmark" clip-path="url(#clip0_404_36)">
<path id="Vector" d="M6.46446 47.9131H5.39559C4.0479 47.9131 2.97903 46.8442 2.97903 45.4965C2.97903 44.1023 4.09437 42.987 5.48854 42.987H6.46446V41.0352H5.16323C2.79314 41.0352 0.841309 42.987 0.841309 45.3571C0.841309 48.006 2.97903 50.1437 5.62795 50.1437H6.46446V47.9131ZM54.7027 47.9131H53.6338C52.2861 47.9131 51.2173 46.8442 51.2173 45.4965C51.2173 44.1023 52.3326 42.987 53.7268 42.987H54.7027V41.0352H53.355C50.9849 41.0352 49.0331 42.987 49.0331 45.3571C49.0331 48.006 51.1708 50.1437 53.8197 50.1437H54.6562V47.9131H54.7027ZM11.1117 41.0352C9.02043 41.0352 7.34743 43.0799 7.34743 45.5894C7.34743 48.0989 9.02043 50.1437 11.1117 50.1437C13.2029 50.1437 14.8759 48.0989 14.8759 45.5894C14.8759 43.0799 13.2029 41.0352 11.1117 41.0352ZM11.1117 48.4243C10.1822 48.4243 9.48515 47.1695 9.48515 45.6359C9.48515 44.1023 10.2287 42.8476 11.1117 42.8476C12.0411 42.8476 12.7382 44.1023 12.7382 45.6359C12.7382 47.1695 11.9947 48.4243 11.1117 48.4243ZM14.8759 50.1437L16.3166 41.0352H19.3373L20.2203 45.5894L21.3821 41.0352H24.1704L25.5181 50.1437H23.1945L22.4509 43.9629L21.1962 50.1437H19.6161L17.8966 44.0559L17.1066 50.1437H14.8759ZM26.0293 50.1437L27.4699 41.0352H30.4906L31.3271 45.5894L32.4889 41.0352H35.3237L36.6714 50.1437H34.3478L33.5578 43.9629L32.303 50.1437H30.7695L29.0035 44.0559L28.26 50.1437H26.0293ZM37.0432 50.1437V41.0352H41.7834V42.8011H39.4133V44.7529H41.5046V46.4259H39.1345V48.1919H41.7834V50.1437H37.0432ZM55.5857 50.1437V41.0352H60.3258V42.8011H57.9557V44.7529H60.047V46.4259H57.6769V48.1919H60.3258V50.1437H55.5857Z" fill="black"/>
<path id="Vector_2" d="M47.3128 45.9147C48.0564 45.9147 48.707 45.3106 48.707 44.5206V43.6841C48.707 42.197 47.4987 41.0352 46.0581 41.0352H42.6191V50.1437H44.7569V45.8683L47.0805 50.1437H49.4506L47.3128 45.9147ZM45.5004 45.1247H44.7104V42.894H45.5934C46.1975 42.894 46.6622 43.3588 46.6622 43.9629C46.6158 44.6135 46.1046 45.1247 45.5004 45.1247Z" fill="black"/>
<path id="Vector_3" d="M49.1734 33.5532H12.135C9.16078 33.5532 6.69775 31.1367 6.69775 28.116V15.3826C6.69775 12.4083 9.11431 9.94531 12.135 9.94531H49.1734C52.1476 9.94531 54.6107 12.3619 54.6107 15.3826V28.116C54.6107 31.1367 52.1476 33.5532 49.1734 33.5532Z" fill="#7F54B3"/>
<path id="Vector_4" d="M11.9023 28.9524C11.9023 28.9524 12.9711 33.3208 15.1089 30.393C17.2466 27.4653 19.2914 22.8645 19.2914 22.8645C19.2914 22.8645 19.4308 21.7027 20.0349 24.2587C20.6391 26.8147 23.2415 30.2071 23.2415 30.2071C23.2415 30.2071 25.6116 33.1349 26.5875 30.0677C26.2157 25.9782 27.6564 18.5426 29.097 14.9642C29.7012 11.8041 26.3552 12.6871 26.0763 13.4771C25.7975 14.2672 23.6598 18.9144 23.5203 23.8869C23.5203 23.8869 21.7544 19.1467 21.615 17.3808C21.4756 15.6613 19.6631 15.1966 18.5943 16.8696C17.5254 18.5426 14.3188 25.0023 14.3188 25.0023L12.2741 14.453C12.2741 14.453 10.2293 11.7577 9.021 15.0572C9.021 15.0572 11.1587 28.023 11.9023 28.9524ZM39.2745 17.3808C36.0679 12.083 31.3742 16.0796 31.3742 16.0796C31.3742 16.0796 27.7958 20.2156 29.4223 25.8388C32.0248 31.4154 35.6031 28.9059 36.5791 28.4877C37.555 28.023 41.8304 23.1898 39.2745 17.3808ZM36.8579 22.028C36.8579 24.2587 35.0455 26.3035 33.5119 25.8388C32.6754 25.374 32.1642 24.0263 32.1642 21.8421C32.9078 18.2173 34.5808 17.7526 35.4173 17.8455C36.9973 18.682 36.9044 20.5874 36.8579 22.028ZM51.1714 17.3808C47.9648 12.083 43.2711 16.0796 43.2711 16.0796C43.2711 16.0796 39.6927 20.2156 41.3192 25.8388C43.9217 31.4154 47.5 28.9059 48.476 28.4877C49.4984 28.023 53.7738 23.1898 51.1714 17.3808ZM48.7548 22.028C48.7548 24.2587 46.9424 26.3035 45.4088 25.8388C44.5723 25.374 44.0611 24.0263 44.0611 21.8421C44.8047 18.2173 46.4777 17.7526 47.3142 17.8455C48.8942 18.682 48.8477 20.5874 48.7548 22.028Z" fill="white"/>
<path id="Vector_5" d="M29.6543 33.5528L37.9728 38.4324L36.2534 33.5528L31.4667 32.2051L29.6543 33.5528Z" fill="#7F54B3"/>
</g>
<defs>
<clipPath id="clip0_404_36">
<rect width="59.4845" height="59.4845" fill="white" transform="translate(0.841309 0.325195)"/>
</clipPath>
</defs>
</svg>
