<svg width="59" height="59" viewBox="0 0 59 59" fill="none" xmlns="http://www.w3.org/2000/svg">
<g id="devicon:javascript" clip-path="url(#clip0_404_1057)">
<path id="Vector" d="M1.56641 1.05176H58.1752V57.661H1.56641V1.05176Z" fill="#F0DB4F"/>
<path id="Vector_2" d="M53.5443 44.1593C53.1297 41.5768 51.4456 39.4076 46.4574 37.3848C44.7245 36.5885 42.7927 36.0183 42.217 34.7051C42.0126 33.9409 41.9855 33.5104 42.1148 33.0478C42.4861 31.5464 44.2782 31.0784 45.6986 31.5089C46.6134 31.8155 47.4794 32.5205 48.0016 33.6451C50.4445 32.0633 50.4395 32.0737 52.1452 30.9866C51.5207 30.0184 51.1874 29.5717 50.7786 29.1574C49.3094 27.5164 47.3075 26.6712 44.1059 26.7359L42.4382 26.9516C40.8401 27.3554 39.3171 28.1942 38.4239 29.3189C35.7442 32.3595 36.5084 37.681 39.7693 39.8711C42.9817 42.2822 47.7009 42.8308 48.3037 45.0854C48.8902 47.8457 46.2751 48.7393 43.6759 48.4218C41.7603 48.0234 40.6949 47.0498 39.5432 45.2794C37.4232 46.5063 37.4232 46.5063 35.2436 47.7598C35.7605 48.8899 36.3036 49.4013 37.17 50.3803C41.2706 54.5397 51.532 54.3353 53.3725 48.0397C53.4471 47.8236 53.9427 46.3819 53.5443 44.1593ZM32.3427 27.0691H27.0478L27.0261 40.7583C27.0261 43.6696 27.1767 46.3385 26.7032 47.1565C25.9286 48.7655 23.9213 48.5661 23.0065 48.2541C22.0754 47.7964 21.6019 47.1457 21.0534 46.2259C20.9028 45.9618 20.7898 45.7574 20.7518 45.7416L16.4468 48.378C17.1626 49.8472 18.2172 51.1224 19.5679 51.9508C21.5856 53.1618 24.2975 53.5331 27.1337 52.8819C28.9796 52.3442 30.5723 51.2305 31.4062 49.5351C32.6118 47.3126 32.3531 44.6224 32.3422 41.6469C32.3694 36.7925 32.3427 31.9389 32.3427 27.0691Z" fill="#323330"/>
</g>
<defs>
<clipPath id="clip0_404_1057">
<rect width="57.8822" height="57.8822" fill="white" transform="translate(0.930664 0.415039)"/>
</clipPath>
</defs>
</svg>
