<svg width="60" height="67" viewBox="0 0 60 67" fill="none" xmlns="http://www.w3.org/2000/svg">
<g id="logos:shopify" clip-path="url(#clip0_404_1871)">
<path id="Vector" d="M52.0027 13.1054C51.9568 12.772 51.6647 12.5874 51.4232 12.5671C49.6431 12.4333 47.8628 12.3006 46.0824 12.169C46.0824 12.169 42.5405 8.65265 42.1518 8.26344C41.7628 7.87447 41.0031 7.99278 40.7082 8.07958C40.6648 8.09237 39.9344 8.3178 38.7261 8.69171C37.543 5.28707 35.4549 2.15836 31.7814 2.15836C31.68 2.15836 31.5756 2.16247 31.4712 2.16841C30.4265 0.786776 29.1323 0.186523 28.0145 0.186523C19.4573 0.186523 15.369 10.884 14.0872 16.32C10.762 17.3504 8.39987 18.0829 8.09814 18.1777C6.24211 18.7599 6.18341 18.8183 5.9397 20.5673C5.75629 21.8913 0.899902 59.448 0.899902 59.448L38.7419 66.5382L59.246 62.1026C59.246 62.1026 52.0479 13.4389 52.0027 13.1054ZM36.6346 9.33855L33.4326 10.3296C33.4337 10.1039 33.4348 9.88193 33.4348 9.63914C33.4348 7.52318 33.1411 5.81949 32.6699 4.46892C34.5627 4.70647 35.8233 6.86011 36.6346 9.33855ZM30.3219 4.88851C30.8481 6.2071 31.1903 8.09945 31.1903 10.653C31.1903 10.7837 31.1892 10.9031 31.188 11.024C29.1056 11.669 26.8428 12.3693 24.5749 13.0719C25.8483 8.15746 28.2352 5.78386 30.3219 4.88851ZM27.7795 2.48178C28.1488 2.48178 28.5209 2.60718 28.877 2.85226C26.1345 4.14276 23.1949 7.39299 21.9535 13.8836L16.7262 15.5026C18.1802 10.5519 21.6331 2.48178 27.7795 2.48178Z" fill="#95BF46"/>
<path id="Vector_2" d="M51.4247 12.5674C49.6445 12.4336 47.8642 12.3009 46.0838 12.1692C46.0838 12.1692 42.5419 8.65292 42.1532 8.26371C42.0077 8.1189 41.8115 8.04467 41.6064 8.0127L38.7451 66.538L59.2474 62.1028C59.2474 62.1028 52.0494 13.4392 52.0041 13.1057C51.9582 12.7722 51.6661 12.5877 51.4247 12.5674Z" fill="#5E8E3E"/>
<path id="Vector_3" d="M31.7829 23.8961L29.2547 31.4166C29.2547 31.4166 27.0396 30.2344 24.3243 30.2344C20.3436 30.2344 20.1433 32.7325 20.1433 33.362C20.1433 36.7967 29.0969 38.1128 29.0969 46.1582C29.0969 52.4881 25.0821 56.564 19.6689 56.564C13.173 56.564 9.85107 52.5212 9.85107 52.5212L11.5904 46.7745C11.5904 46.7745 15.0051 49.7061 17.8864 49.7061C19.7692 49.7061 20.535 48.2237 20.535 47.1406C20.535 42.6602 13.1895 42.4603 13.1895 35.0981C13.1895 28.9016 17.637 22.9053 26.6148 22.9053C30.074 22.9053 31.7829 23.8961 31.7829 23.8961Z" fill="white"/>
</g>
<defs>
<clipPath id="clip0_404_1871">
<rect width="58.4721" height="66.6948" fill="white" transform="translate(0.89209 0.00878906)"/>
</clipPath>
</defs>
</svg>
