<svg width="57" height="80" viewBox="0 0 57 80" fill="none" xmlns="http://www.w3.org/2000/svg">
<g id="logos:html-5" clip-path="url(#clip0_6_473)">
<path id="Vector" d="M55.9642 16.3027L50.9096 72.9268L28.1891 79.2255L5.53125 72.9354L0.481934 16.3027H55.9642Z" fill="#E44D26"/>
<path id="Vector_2" d="M28.2319 74.4132L46.5912 69.3235L50.9105 20.9355H28.2319V74.4132Z" fill="#F16529"/>
<path id="Vector_3" d="M18.4009 34.8266H28.2268V27.8809H10.8101L10.9762 29.7443L12.6835 48.885H28.2268V41.9392H19.0357L18.4009 34.8266ZM19.9663 52.358H12.9938L13.9668 63.2639L28.1948 67.2134L28.2268 67.2047V59.9782L28.1963 59.9862L20.4609 57.8975L19.9663 52.358Z" fill="#EBEBEB"/>
<path id="Vector_4" d="M5.65381 0.912109H9.18357V4.39946H12.4125V0.912109H15.9425V11.4727H12.4128V7.93639H9.18378V11.4727H5.65403L5.65381 0.912109ZM20.5841 4.41425H17.4771V0.912109H27.2234V4.41425H24.1145V11.4727H20.5847V4.41425H20.5841ZM28.7701 0.912109H32.4506L34.7146 4.62281L36.9764 0.912109H40.6584V11.4727H37.143V6.23828L34.7146 9.99313H34.6537L32.2238 6.23828V11.4727H28.7701V0.912109ZM42.4151 0.912109H45.9459V7.98206H50.9097V11.4727H42.4148L42.4151 0.912109Z" fill="black"/>
<path id="Vector_5" d="M28.2009 48.885H36.7539L35.9474 57.8932L28.2007 59.984V67.2102L42.44 63.2639L42.5444 62.0904L44.1768 43.8044L44.3462 41.9392H28.2009V48.885ZM28.2009 34.8097V34.8266H44.9782L45.1174 33.2655L45.4341 29.7443L45.6 27.8809H28.2009V34.8097Z" fill="white"/>
</g>
<defs>
<clipPath id="clip0_6_473">
<rect width="55.6758" height="78.5116" fill="white" transform="translate(0.388184 0.912109)"/>
</clipPath>
</defs>
</svg>
