<svg width="56" height="80" viewBox="0 0 56 80" fill="none" xmlns="http://www.w3.org/2000/svg">
<g id="logos:css-3" clip-path="url(#clip0_6_467)">
<path id="Vector" d="M27.9616 79.2255L5.30371 72.9354L0.254395 16.3027H55.7366L50.6821 72.9268L27.9616 79.2255Z" fill="#264DE4"/>
<path id="Vector_2" d="M46.3481 69.3235L50.6673 20.9355H27.9888V74.4132L46.3481 69.3235Z" fill="#2965F1"/>
<path id="Vector_3" d="M11.8335 41.9392L12.4559 48.885H27.9993V41.9392H11.8335ZM10.5825 27.8809L11.2139 34.8266H27.9993V27.8809H10.5825ZM27.9993 59.9782L27.9688 59.9862L20.2334 57.8975L19.7388 52.358H12.7663L13.7393 63.2639L27.9673 67.2134L27.9993 67.2047V59.9782Z" fill="#EBEBEB"/>
<path id="Vector_4" d="M13.3169 0.912109H21.7292V4.43012H16.8349V7.94814H21.7296V11.4659H13.3169V0.912109ZM23.4118 0.912109H31.8243V3.97123H26.9298V4.58301H31.8243V11.619H23.412V8.40659H28.3065V7.79481H23.4116L23.4118 0.912109ZM33.507 0.912109H41.9195V3.97123H37.025V4.58301H41.9195V11.619H33.507V8.40659H38.4014V7.79481H33.5072L33.507 0.912109Z" fill="black"/>
<path id="Vector_5" d="M44.1187 41.9392L45.3725 27.8809H27.9734V34.8266H37.7606L37.1285 41.9392H27.9734V48.885H36.5263L35.7199 57.8932L27.9731 59.984V67.2102L42.2124 63.2639L42.3168 62.0904L43.9493 43.8044L44.1187 41.9392Z" fill="white"/>
</g>
<defs>
<clipPath id="clip0_6_467">
<rect width="55.6758" height="78.5116" fill="white" transform="translate(0.160645 0.912109)"/>
</clipPath>
</defs>
</svg>
