<svg width="59" height="45" viewBox="0 0 59 45" fill="none" xmlns="http://www.w3.org/2000/svg">
<g id="logos:weebly" clip-path="url(#clip0_404_5)">
<path id="Vector" d="M48.3161 0.375C43.8591 0.375 40.1446 3.33812 39.0054 7.77275C36.9516 1.1092 31.6951 0.380133 29.5024 0.380133C27.31 0.380133 22.0555 1.1092 19.998 7.77118C18.8583 3.34079 15.1434 0.380133 10.6875 0.380133C5.21989 0.380133 0.937012 4.28878 0.937012 9.2784C0.937012 11.485 1.48219 13.2466 2.14096 15.1573L9.56481 36.1513C12.0506 43.1139 17.1148 44.1536 19.9118 44.1536C24.2996 44.1536 27.7186 41.9064 29.5017 37.9236C31.2863 41.9242 34.7058 44.1828 39.0913 44.1828C41.885 44.1828 46.9441 43.1413 49.4426 36.1531L56.9073 15.0877L56.9655 14.9139C57.0508 14.6438 57.1369 14.3905 57.2181 14.15C57.6156 12.9739 58.0659 11.641 58.0659 10.0075C58.0659 4.42624 53.9656 0.375 48.3161 0.375ZM51.8351 13.2904L44.3704 34.3558C43.459 36.9042 41.9433 38.8015 39.0913 38.8015C36.4194 38.8015 34.8419 37.3126 34.0537 34.7615L29.5617 20.7415H29.4396L24.9506 34.7615C24.1608 37.3131 22.5828 38.7721 19.9116 38.7721C17.0592 38.7721 15.5421 36.8906 14.6323 34.3419L7.22855 13.4042C6.62156 11.6435 6.31829 10.554 6.31829 9.27796C6.31829 7.33558 8.13994 5.76141 10.6875 5.76141C12.812 5.76141 14.3291 7.16196 14.8146 9.22529L19.852 25.9259H19.9725L25.0706 9.59328C25.7394 7.22667 26.9525 5.76141 29.5024 5.76141C32.0508 5.76141 33.2642 7.22422 33.9316 9.59083L39.0299 25.9259H39.1504L44.1894 9.22529C44.6743 7.16196 46.1911 5.75627 48.3161 5.75627C50.8636 5.75627 52.6846 7.33625 52.6846 10.0075C52.6846 10.978 52.2584 11.9532 51.8351 13.2904Z" fill="#3192E7"/>
</g>
<defs>
<clipPath id="clip0_404_5">
<rect width="57.1289" height="43.9625" fill="white" transform="translate(0.936035 0.375)"/>
</clipPath>
</defs>
</svg>
