<svg width="59" height="31" viewBox="0 0 59 31" fill="none" xmlns="http://www.w3.org/2000/svg">
<g id="logos:php" clip-path="url(#clip0_404_982)">
<path id="Vector" d="M29.6855 30.5869C45.7319 30.5869 58.7401 23.7475 58.7401 15.3106C58.7401 6.87365 45.7319 0.0341797 29.6855 0.0341797C13.6391 0.0341797 0.630859 6.87365 0.630859 15.3106C0.630859 23.7475 13.6391 30.5869 29.6855 30.5869Z" fill="url(#paint0_radial_404_982)"/>
<path id="Vector_2" d="M29.6853 29.4518C45.1049 29.4518 57.605 23.1205 57.605 15.3104C57.605 7.50028 45.1049 1.16895 29.6853 1.16895C14.2657 1.16895 1.76562 7.50028 1.76562 15.3104C1.76562 23.1205 14.2657 29.4518 29.6853 29.4518Z" fill="#6181B6"/>
<path id="Vector_3" d="M35.3367 19.8958L36.7214 12.7684C37.0392 11.1568 36.7668 9.95372 35.9496 9.20465C35.1552 8.47829 33.7932 8.1151 31.7957 8.1151H29.3896L30.0706 4.57407C30.0933 4.43788 30.0706 4.30168 29.9798 4.18819C29.889 4.07469 29.7755 4.0293 29.6393 4.0293H26.3253C26.0983 4.0293 25.9167 4.18819 25.8713 4.39248L24.3959 11.9512C24.2597 11.0887 23.9419 10.3623 23.3971 9.77212C22.4211 8.65988 20.9002 8.0924 18.8346 8.0924H12.4562C12.2292 8.0924 12.0477 8.2513 12.0023 8.45559L9.02869 23.8001C9.006 23.9363 9.0287 24.0724 9.11949 24.1859C9.21029 24.2994 9.32378 24.3448 9.45997 24.3448H12.7967C13.0237 24.3448 13.2053 24.1859 13.2507 23.9816L13.9771 20.2817H16.4512C17.7451 20.2817 18.8573 20.1455 19.6972 19.8731C20.5824 19.5781 21.3769 19.1014 22.0806 18.4431C22.648 17.921 23.1247 17.3309 23.4879 16.6953L22.8977 19.7596C22.875 19.8958 22.8977 20.032 22.9885 20.1455C23.0793 20.259 23.1928 20.3044 23.329 20.3044H26.6431C26.87 20.3044 27.0516 20.1455 27.097 19.9412L28.7314 11.5426H31.0013C31.9773 11.5426 32.2497 11.7242 32.3405 11.815C32.4086 11.8831 32.5448 12.1555 32.3859 12.9954L31.0693 19.7823C31.0466 19.9185 31.0693 20.0547 31.1601 20.1682C31.2509 20.2817 31.3644 20.3271 31.5006 20.3271H34.9055C35.1098 20.259 35.2913 20.1001 35.3367 19.8958ZM19.9923 13.9941C19.788 15.061 19.4021 15.8327 18.8346 16.264C18.2672 16.6953 17.3365 16.9223 16.1108 16.9223H14.6353L15.7022 11.4291H17.6089C19.0162 11.4291 19.5837 11.7242 19.8107 11.9739C20.1058 12.3371 20.1739 13.0408 19.9923 13.9941ZM49.5009 9.77212C48.5248 8.65988 47.004 8.0924 44.9384 8.0924H38.5146C38.2876 8.0924 38.106 8.2513 38.0606 8.45559L35.0871 23.7774C35.0644 23.9136 35.0871 24.0497 35.1779 24.1632C35.2686 24.2767 35.3821 24.3221 35.5183 24.3221H38.8551C39.0821 24.3221 39.2637 24.1632 39.3091 23.959L40.0354 20.259H42.5096C43.8034 20.259 44.9157 20.1228 45.7556 19.8504C46.6408 19.5554 47.4353 19.0787 48.1389 18.4204C48.7291 17.8756 49.2285 17.2628 49.5917 16.6045C49.9548 15.9462 50.2272 15.2199 50.3861 14.4254C50.772 12.4506 50.4769 10.9071 49.5009 9.77212ZM46.0279 13.9941C45.8236 15.061 45.4378 15.8327 44.8703 16.264C44.3028 16.6953 43.3722 16.9223 42.1464 16.9223H40.671L41.7378 11.4291H43.6446C45.0519 11.4291 45.6194 11.7242 45.8463 11.9739C46.1641 12.3371 46.2322 13.0408 46.0279 13.9941Z" fill="white"/>
<path id="Vector_4" d="M17.6096 10.9753C18.8808 10.9753 19.7206 11.2023 20.1519 11.679C20.5832 12.1556 20.674 12.9501 20.447 14.085C20.22 15.2654 19.766 16.1279 19.1077 16.6273C18.4495 17.1267 17.4507 17.3764 16.1115 17.3764H14.0913L15.3397 10.9753H17.6096ZM9.4834 23.8683H12.8201L13.6146 19.8052H16.4747C17.7458 19.8052 18.7673 19.669 19.5844 19.3966C20.4016 19.1242 21.1279 18.6929 21.8089 18.0574C22.3764 17.5353 22.8304 16.9678 23.1708 16.3549C23.5113 15.7421 23.761 15.0611 23.8972 14.312C24.2604 12.4961 23.988 11.0888 23.1028 10.0673C22.2175 9.04588 20.8102 8.5465 18.8808 8.5465H12.457L9.4834 23.8683ZM26.3487 4.4834H29.6627L28.8683 8.5465H31.8191C33.6804 8.5465 34.9516 8.86429 35.6553 9.52256C36.3589 10.1808 36.5632 11.225 36.2908 12.6777L34.9062 19.8052H31.5467L32.8633 13.0182C33.0222 12.2464 32.9541 11.7244 32.7044 11.452C32.4547 11.1796 31.8872 11.0207 31.0474 11.0207H28.3916L26.6892 19.8052H23.3751L26.3487 4.4834ZM43.6453 10.9753C44.9164 10.9753 45.7563 11.2023 46.1876 11.679C46.6188 12.1556 46.7096 12.9501 46.4826 14.085C46.2557 15.2654 45.8017 16.1279 45.1434 16.6273C44.4851 17.1267 43.4864 17.3764 42.1471 17.3764H40.1269L41.3754 10.9753H43.6453ZM35.5191 23.8683H38.8558L39.6503 19.8052H42.5103C43.7815 19.8052 44.8029 19.669 45.6201 19.3966C46.4372 19.1242 47.1636 18.6929 47.8446 18.0574C48.412 17.5353 48.866 16.9678 49.2065 16.3549C49.547 15.7421 49.7967 15.0611 49.9329 14.312C50.2961 12.4961 50.0237 11.0888 49.1384 10.0673C48.2532 9.04588 46.8458 8.5465 44.9164 8.5465H38.4926L35.5191 23.8683Z" fill="#000004"/>
</g>
<defs>
<radialGradient id="paint0_radial_404_982" cx="0" cy="0" r="1" gradientUnits="userSpaceOnUse" gradientTransform="translate(18.0753 5.40645) scale(38.1558 38.1558)">
<stop stop-color="white"/>
<stop offset="0.5" stop-color="#4C6B97"/>
<stop offset="1" stop-color="#231F20"/>
</radialGradient>
<clipPath id="clip0_404_982">
<rect width="58.1092" height="30.6435" fill="white" transform="translate(0.631836 0.0341797)"/>
</clipPath>
</defs>
</svg>
