<svg width="61" height="61" viewBox="0 0 61 61" fill="none" xmlns="http://www.w3.org/2000/svg">
<g id="Group">
<path id="Vector" d="M10.127 30.3545C10.127 38.344 14.77 45.2485 21.5028 48.5205L11.8745 22.1401C10.7203 24.7247 10.1248 27.5239 10.127 30.3545ZM43.9375 29.3359C43.9375 26.8416 43.0415 25.114 42.273 23.7693C41.2497 22.1067 40.2906 20.6987 40.2906 19.0361C40.2906 17.1806 41.6979 15.4535 43.6801 15.4535C43.7697 15.4535 43.8544 15.4646 43.9417 15.4695C40.3506 12.1796 35.5664 10.1709 30.3113 10.1709C23.26 10.1709 17.0559 13.7888 13.447 19.2688C13.9204 19.2829 14.3667 19.2931 14.7458 19.2931C16.8571 19.2931 20.1251 19.0366 20.1251 19.0366C21.2131 18.9726 21.3416 20.5707 20.2545 20.6994C20.2545 20.6994 19.1611 20.8281 17.9444 20.8919L25.2946 42.7551L29.7118 29.5072L26.567 20.8912C25.4802 20.8274 24.4506 20.6987 24.4506 20.6987C23.3628 20.635 23.4903 18.9719 24.5781 19.0361C24.5781 19.0361 27.9113 19.2921 29.8946 19.2921C32.0057 19.2921 35.2739 19.0361 35.2739 19.0361C36.3629 18.9719 36.4906 20.57 35.4033 20.6987C35.4033 20.6987 34.3076 20.8274 33.0932 20.8912L40.3876 42.5887L42.4008 35.8611C43.2735 33.0691 43.9375 31.0639 43.9375 29.3359Z" fill="#0073AA"/>
<path id="Vector_2" d="M30.6649 32.1204L24.6089 49.7181C26.4604 50.2635 28.3806 50.5404 30.3108 50.5405C32.5937 50.5413 34.8601 50.1544 37.0134 49.3962C36.9574 49.308 36.9094 49.2149 36.8699 49.1181L30.6649 32.1204ZM48.0217 20.6709C48.1135 21.3588 48.1589 22.0522 48.1577 22.7462C48.1577 24.7944 47.7751 27.097 46.6229 29.9761L40.4574 47.8019C46.4582 44.3025 50.4944 37.8016 50.4944 30.3552C50.4947 26.8458 49.5984 23.5457 48.0217 20.6709Z" fill="#0073AA"/>
<path id="Vector_3" d="M30.3137 6.82617C17.34 6.82617 6.78467 17.3808 6.78467 30.3543C6.78467 43.3294 17.34 53.8836 30.3137 53.8836C43.2867 53.8836 53.8437 43.3294 53.8437 30.3543C53.8433 17.3808 43.2867 6.82617 30.3137 6.82617ZM30.3137 52.8052C17.9348 52.8052 7.8635 42.7336 7.8635 30.3543C7.8635 17.9756 17.9346 7.905 30.3137 7.905C42.6919 7.905 52.7625 17.9756 52.7625 30.3543C52.7625 42.7336 42.6919 52.8052 30.3137 52.8052Z" fill="#0073AA"/>
</g>
</svg>
