<svg xmlns="http://www.w3.org/2000/svg" width="39" height="31" viewBox="0 0 39 31" fill="none">
  <g clip-path="url(#clip0_593_725)">
    <path d="M7.44875 30.3236V28.3482C7.44875 27.5908 6.9877 27.097 6.19744 27.097C5.80239 27.097 5.37434 27.2287 5.07797 27.6568C4.8476 27.2946 4.51839 27.097 4.02449 27.097C3.69513 27.097 3.36607 27.1957 3.10255 27.5579V27.1629H2.41113V30.3236H3.10255V28.5786C3.10255 28.019 3.39892 27.7555 3.85996 27.7555C4.32071 27.7555 4.55138 28.0518 4.55138 28.5786V30.3236H5.2428V28.5786C5.2428 28.019 5.57186 27.7555 5.99991 27.7555C6.46096 27.7555 6.69133 28.0518 6.69133 28.5786V30.3236H7.44875ZM17.6882 27.1629H16.5689V26.2081H15.8775V27.1629H15.2519V27.7883H15.8773V29.2371C15.8773 29.9615 16.1737 30.3894 16.9639 30.3894C17.2603 30.3894 17.5894 30.2908 17.82 30.1591L17.6224 29.5663C17.4248 29.698 17.1945 29.731 17.0298 29.731C16.7006 29.731 16.5689 29.5335 16.5689 29.2041V27.7883H17.6882V27.1629ZM23.5489 27.0969C23.1539 27.0969 22.8905 27.2946 22.7258 27.5579V27.1629H22.0344V30.3236H22.7258V28.5457C22.7258 28.019 22.9562 27.7226 23.3842 27.7226C23.5159 27.7226 23.6806 27.7556 23.8123 27.7884L24.0098 27.13C23.8781 27.097 23.6806 27.097 23.5489 27.097M14.6922 27.4264C14.3628 27.1959 13.9019 27.0972 13.408 27.0972C12.6179 27.0972 12.0912 27.4922 12.0912 28.1178C12.0912 28.6447 12.4862 28.9409 13.1776 29.0398L13.5068 29.0727C13.869 29.1384 14.0666 29.2373 14.0666 29.402C14.0666 29.6323 13.8032 29.797 13.3422 29.797C12.8813 29.797 12.5191 29.6323 12.2885 29.4678L11.9593 29.9945C12.3215 30.2579 12.8154 30.3896 13.3092 30.3896C14.2311 30.3896 14.758 29.9617 14.758 29.369C14.758 28.8092 14.3299 28.5129 13.6714 28.4142L13.3422 28.3812C13.0458 28.3482 12.8154 28.2825 12.8154 28.085C12.8154 27.8544 13.0458 27.7228 13.408 27.7228C13.8032 27.7228 14.1983 27.8873 14.3958 27.9861L14.6922 27.4264ZM33.0643 27.0972C32.6691 27.0972 32.4057 27.2947 32.241 27.5581V27.163H31.5496V30.3238H32.241V28.5459C32.241 28.0191 32.4715 27.7228 32.8994 27.7228C33.0313 27.7228 33.1959 27.7558 33.3276 27.7886L33.5252 27.1302C33.3935 27.0972 33.1959 27.0972 33.0643 27.0972ZM24.2403 28.7434C24.2403 29.6982 24.8988 30.3896 25.9195 30.3896C26.3804 30.3896 26.7097 30.2909 27.0389 30.0275L26.7097 29.4678C26.4463 29.6653 26.1829 29.764 25.8865 29.764C25.3268 29.764 24.9318 29.369 24.9318 28.7434C24.9318 28.1508 25.3268 27.7556 25.8865 27.7228C26.1829 27.7228 26.4463 27.8214 26.7097 28.0191L27.0389 27.4594C26.7097 27.1959 26.3804 27.0972 25.9195 27.0972C24.8988 27.0972 24.2403 27.7886 24.2403 28.7434ZM30.6278 28.7434V27.163H29.9364V27.5581C29.7059 27.2619 29.3766 27.0972 28.9486 27.0972C28.0596 27.0972 27.3682 27.7886 27.3682 28.7434C27.3682 29.6982 28.0596 30.3896 28.9486 30.3896C29.4095 30.3896 29.7388 30.2251 29.9364 29.9287V30.3238H30.6278V28.7434ZM28.0925 28.7434C28.0925 28.1837 28.4547 27.7228 29.0473 27.7228C29.607 27.7228 30.0022 28.1508 30.0022 28.7434C30.0022 29.3031 29.607 29.764 29.0473 29.764C28.4547 29.731 28.0925 29.3031 28.0925 28.7434ZM19.8285 27.0972C18.9065 27.0972 18.2479 27.7556 18.2479 28.7434C18.2479 29.7312 18.9064 30.3896 19.8613 30.3896C20.3222 30.3896 20.7832 30.2579 21.1454 29.9617L20.8161 29.4678C20.5527 29.6653 20.2235 29.797 19.8943 29.797C19.4662 29.797 19.0382 29.5995 18.9394 29.0396H21.2771V28.7764C21.3101 27.7556 20.7175 27.0972 19.8285 27.0972ZM19.8283 27.6898C20.2562 27.6898 20.5527 27.9533 20.6184 28.4472H18.9722C19.038 28.0191 19.3344 27.6898 19.8283 27.6898ZM36.9821 28.7434V25.9119H36.2907V27.5581C36.0602 27.2619 35.7309 27.0972 35.3029 27.0972C34.414 27.0972 33.7225 27.7886 33.7225 28.7434C33.7225 29.6982 34.414 30.3896 35.3029 30.3896C35.7639 30.3896 36.0932 30.2251 36.2907 29.9287V30.3238H36.9821V28.7434ZM34.4469 28.7434C34.4469 28.1837 34.809 27.7228 35.4017 27.7228C35.9615 27.7228 36.3565 28.1508 36.3565 28.7434C36.3565 29.3031 35.9615 29.764 35.4017 29.764C34.809 29.731 34.4469 29.3031 34.4469 28.7434ZM11.3336 28.7434V27.163H10.6422V27.5581C10.4116 27.2619 10.0824 27.0972 9.65439 27.0972C8.76544 27.0972 8.07402 27.7886 8.07402 28.7434C8.07402 29.6982 8.76544 30.3896 9.65439 30.3896C10.1154 30.3896 10.4446 30.2251 10.6422 29.9287V30.3238H11.3336V28.7434ZM8.76544 28.7434C8.76544 28.1837 9.12765 27.7228 9.72023 27.7228C10.28 27.7228 10.6752 28.1508 10.6752 28.7434C10.6752 29.3031 10.28 29.764 9.72023 29.764C9.12765 29.731 8.76544 29.3031 8.76544 28.7434Z" fill="black"/>
    <path d="M14.4658 3.16187H24.8371V21.7973H14.4658V3.16187Z" fill="#FF5F00"/>
    <path d="M15.1253 12.4836C15.1253 8.69727 16.9032 5.33887 19.6358 3.16577C17.6276 1.5854 15.0924 0.630615 12.3268 0.630615C5.77446 0.630615 0.473633 5.93145 0.473633 12.4836C0.473633 19.0356 5.77446 24.3366 12.3266 24.3366C15.0923 24.3366 17.6274 23.3818 19.6358 21.8012C16.9032 19.6611 15.1253 16.2699 15.1253 12.4836Z" fill="#EB001B"/>
    <path d="M38.8233 12.4836C38.8233 19.0356 33.5225 24.3366 26.9704 24.3366C24.2047 24.3366 21.6695 23.3818 19.6611 21.8012C22.4268 19.6283 24.1719 16.2699 24.1719 12.4836C24.1719 8.69727 22.3938 5.33887 19.6611 3.16577C21.6694 1.5854 24.2047 0.630615 26.9704 0.630615C33.5225 0.630615 38.8233 5.96444 38.8233 12.4836Z" fill="#F79E1B"/>
  </g>
  <defs>
    <clipPath id="clip0_593_725">
      <rect width="38.3955" height="29.8465" fill="white" transform="translate(0.473633 0.630615)"/>
    </clipPath>
  </defs>
</svg>