<svg xmlns="http://www.w3.org/2000/svg" width="27" height="31" viewBox="0 0 27 31" fill="none">
  <g clip-path="url(#clip0_593_713)">
    <path d="M22.7925 2.72812C21.3912 1.13084 18.858 0.446045 15.6172 0.446045H6.21177C5.89113 0.446057 5.58101 0.560449 5.33717 0.768656C5.09333 0.976863 4.93176 1.26523 4.88151 1.5819L0.965241 26.4198C0.887398 26.9096 1.26665 27.3531 1.76308 27.3531H7.56969L9.02798 18.1034L8.98272 18.3931C9.08661 17.7393 9.64579 17.257 10.308 17.257H13.0672C18.4879 17.257 22.7323 15.0553 23.9721 8.68619C24.0089 8.49782 24.0408 8.31448 24.0684 8.13536C23.9119 8.05249 23.9119 8.05249 24.0684 8.13536C24.4376 5.78128 24.0659 4.17887 22.7925 2.72812Z" fill="#27346A"/>
    <path d="M11.2498 7.28734C11.4086 7.21175 11.5822 7.17258 11.758 7.17269H19.1317C20.0049 7.17269 20.8193 7.22951 21.5635 7.34929C21.7718 7.38249 21.979 7.42214 22.1848 7.46817C22.4765 7.53253 22.7648 7.61131 23.0487 7.70421C23.4146 7.8264 23.7553 7.96871 24.0685 8.13536C24.4376 5.78037 24.0659 4.17887 22.7925 2.72812C21.3904 1.13084 18.858 0.446045 15.6172 0.446045H6.21096C5.5487 0.446045 4.9853 0.928186 4.88151 1.5819L0.965241 26.4189C0.887399 26.9095 1.26665 27.3524 1.76227 27.3524H7.56969L10.5952 8.16633C10.6249 7.97775 10.7001 7.79922 10.8141 7.6461C10.9281 7.49298 11.0777 7.36986 11.2498 7.28734Z" fill="#27346A"/>
    <path d="M23.9784 8.68438C22.7385 15.0526 18.4942 17.2552 13.0735 17.2552H10.3134C9.65122 17.2552 9.09194 17.7374 8.98905 18.3913L7.17484 29.8921C7.10705 30.3208 7.43854 30.7092 7.8722 30.7092H12.767C13.0474 30.7091 13.3186 30.609 13.5318 30.4269C13.7449 30.2447 13.8861 29.9925 13.9299 29.7155L13.9776 29.4661L14.9002 23.6193L14.9596 23.2961C15.0034 23.0192 15.1446 22.767 15.3577 22.5849C15.5709 22.4027 15.842 22.3026 16.1224 22.3025H16.855C21.5966 22.3025 25.3094 20.3761 26.3944 14.8049C26.8473 12.4766 26.6129 10.5328 25.4149 9.16742C25.0516 8.75387 24.6003 8.41233 24.0746 8.13354C24.0462 8.31357 24.0153 8.49601 23.9784 8.68438Z" fill="#2790C3"/>
    <path d="M22.7736 7.61804C22.5803 7.56159 22.3851 7.51161 22.1885 7.46819C21.9826 7.42292 21.7754 7.38354 21.5673 7.35012C20.8222 7.22953 20.0084 7.17261 19.1344 7.17261H11.7616C11.5857 7.17221 11.4119 7.21172 11.2534 7.28817C11.0811 7.37044 10.9314 7.49349 10.8173 7.64665C10.7032 7.79981 10.6282 7.97847 10.5987 8.16716L9.03159 18.1035L8.98633 18.3931C9.08941 17.7393 9.64859 17.257 10.3109 17.257H13.0709C18.4916 17.257 22.7359 15.0553 23.9757 8.68622C24.0127 8.49784 24.0436 8.31531 24.0721 8.13538C23.7581 7.96964 23.4183 7.82643 23.0523 7.70504C22.9599 7.67442 22.8671 7.64542 22.7737 7.61804" fill="#1F264F"/>
  </g>
  <defs>
    <clipPath id="clip0_593_713">
      <rect width="25.7464" height="30.3727" fill="white" transform="translate(0.955078 0.36792)"/>
    </clipPath>
  </defs>
</svg>