<svg xmlns="http://www.w3.org/2000/svg" width="48" height="21" viewBox="0 0 48 21" fill="none">
  <g clip-path="url(#clip0_593_719)">
    <path d="M47.0875 10.8345C47.0875 7.51909 45.4815 4.903 42.4122 4.903C39.3298 4.903 37.4649 7.51918 37.4649 10.8087C37.4649 14.7068 39.6667 16.6753 42.8266 16.6753C44.3678 16.6753 45.5334 16.3257 46.414 15.8336V13.2434C45.5334 13.6837 44.5232 13.9557 43.2411 13.9557C41.9848 13.9557 40.871 13.5154 40.7286 11.9872H47.0616C47.0616 11.8187 47.0875 11.1453 47.0875 10.8345ZM40.6897 9.6042C40.6897 8.14076 41.5834 7.53202 42.3993 7.53202C43.1893 7.53202 44.0311 8.14076 44.0311 9.6042H40.6897ZM32.466 4.903C31.1967 4.903 30.3808 5.49872 29.9276 5.91323L29.7592 5.11026H26.9101V20.2109L30.1477 19.5245L30.1607 15.8594C30.627 16.1962 31.3133 16.6753 32.453 16.6753C34.7712 16.6753 36.8822 14.8104 36.8822 10.705C36.8693 6.94923 34.7324 4.903 32.4659 4.903M31.6888 13.8261C30.9247 13.8261 30.4713 13.5542 30.1607 13.2175L30.1476 8.41267C30.4844 8.03713 30.9506 7.77816 31.6888 7.77816C32.8673 7.77816 33.6833 9.09908 33.6833 10.7956C33.6833 12.5311 32.8803 13.8261 31.6888 13.8261ZM22.4549 4.13891L25.7056 3.43956V0.810547L22.4549 1.49696V4.13891ZM22.4549 5.12319H25.7056V16.4552H22.4549V5.12319ZM18.9712 6.08151L18.7639 5.12319H15.9665V16.4552H19.2043V8.77536C19.9683 7.77816 21.2635 7.95946 21.665 8.10188V5.12319C21.2505 4.96775 19.7353 4.68282 18.9712 6.08151ZM12.4957 2.31287L9.33568 2.98626L9.32275 13.3599C9.32275 15.2767 10.7603 16.6883 12.6771 16.6883C13.739 16.6883 14.516 16.494 14.9434 16.2609V13.6319C14.5291 13.8003 12.4827 14.396 12.4827 12.4793V7.88169H14.9434V5.12319H12.4827L12.4957 2.31287ZM3.74091 8.41267C3.74091 7.90764 4.15532 7.71332 4.84183 7.71332C5.82602 7.71332 7.06927 8.01127 8.05355 8.54225V5.49872C6.97866 5.07137 5.91671 4.903 4.84183 4.903C2.21272 4.903 0.464355 6.27583 0.464355 8.5682C0.464355 12.1425 5.38565 11.5728 5.38565 13.114C5.38565 13.7096 4.86769 13.9039 4.14239 13.9039C3.06751 13.9039 1.69468 13.4635 0.606775 12.8678V15.9501C1.81124 16.4682 3.02863 16.6883 4.14239 16.6883C6.83615 16.6883 8.68815 15.3544 8.68815 13.0362C8.67522 9.17685 3.74091 9.86318 3.74091 8.41267Z" fill="#635BFF"/>
  </g>
  <defs>
    <clipPath id="clip0_593_719">
      <rect width="46.6231" height="19.487" fill="white" transform="translate(0.464355 0.810547)"/>
    </clipPath>
  </defs>
</svg>