<svg xmlns="http://www.w3.org/2000/svg" width="42" height="15" viewBox="0 0 42 15" fill="none">
  <g clip-path="url(#clip0_593_722)">
    <path d="M21.4209 5.16547C21.3977 6.99147 23.0482 8.01039 24.2915 8.61626C25.5689 9.23782 25.998 9.63645 25.9929 10.1924C25.9834 11.0431 24.974 11.4185 24.0294 11.4331C22.3815 11.4586 21.4233 10.9882 20.6615 10.6324L20.0679 13.4102C20.8322 13.7624 22.2473 14.0695 23.7148 14.083C27.1596 14.083 29.4132 12.3826 29.4254 9.74617C29.4389 6.40019 24.7973 6.21499 24.829 4.71943C24.84 4.26594 25.2727 3.78201 26.2209 3.65897C26.6902 3.59681 27.9858 3.54924 29.4548 4.22567L30.0313 1.53804C29.2413 1.25041 28.2261 0.974986 26.962 0.974986C23.7197 0.974986 21.4393 2.69856 21.4209 5.16547ZM35.5711 1.20649C34.9421 1.20649 34.4121 1.5734 34.1755 2.13645L29.2548 13.8856H32.697L33.382 11.9925H37.5884L37.9857 13.8856H41.0197L38.3722 1.20649H35.5711ZM36.0527 4.63159L37.0461 9.39274H34.3255L36.0527 4.63159ZM17.2474 1.20665L14.5341 13.8854H17.8142L20.5263 1.20633L17.2474 1.20665ZM12.3949 1.20665L8.98074 9.83639L7.59966 2.49861C7.43761 1.67948 6.79766 1.20649 6.08698 1.20649H0.505906L0.427734 1.57467C1.57351 1.82329 2.8753 2.2243 3.66399 2.65337C4.14665 2.91547 4.28429 3.14459 4.44285 3.76743L7.05865 13.8856H10.525L15.8393 1.20649L12.3949 1.20665Z" fill="url(#paint0_linear_593_722)"/>
  </g>
  <defs>
    <linearGradient id="paint0_linear_593_722" x1="1866.6" y1="40.3777" x2="1904.54" y2="-1305.84" gradientUnits="userSpaceOnUse">
      <stop stop-color="#222357"/>
      <stop offset="1" stop-color="#254AA5"/>
    </linearGradient>
    <clipPath id="clip0_593_722">
      <rect width="40.5919" height="13.1607" fill="white" transform="translate(0.427734 0.973633)"/>
    </clipPath>
  </defs>
</svg>