<svg xmlns="http://www.w3.org/2000/svg" width="37" height="37" viewBox="0 0 37 37" fill="none">
  <mask id="path-1-outside-1_144_2673" maskUnits="userSpaceOnUse" x="1.5" y="0.466797" width="35" height="35" fill="black">
    <rect fill="white" x="1.5" y="0.466797" width="35" height="35"/>
    <path fill-rule="evenodd" clip-rule="evenodd" d="M11.7778 7.10568C11.7778 5.09598 13.407 3.4668 15.4167 3.4668C17.4264 3.4668 19.0555 5.09598 19.0555 7.10568V8.92513C19.0555 9.23925 19.0157 9.54408 18.9409 9.83484H24.124C25.8466 9.83484 27.2431 11.2313 27.2431 12.9539V18.137C27.5338 18.0621 27.8387 18.0223 28.1528 18.0223H29.9722C31.9819 18.0223 33.6111 19.6515 33.6111 21.6612C33.6111 23.6709 31.9819 25.3001 29.9722 25.3001H28.1528C27.8386 25.3001 27.5338 25.2603 27.2431 25.1855V29.4588C27.2431 31.1814 25.8466 32.5779 24.124 32.5779H19.0555L19.0555 30.7585C19.0555 28.7488 17.4264 27.1196 15.4167 27.1196C13.407 27.1196 11.7778 28.7488 11.7778 30.7585V32.5779L7.61905 32.5779C5.89645 32.5779 4.5 31.1814 4.5 29.4588V25.3001H5.40973C7.41943 25.3001 9.04861 23.6709 9.04861 21.6612C9.04861 19.6515 7.41943 18.0223 5.40973 18.0223H4.5V12.9539C4.5 11.2313 5.89645 9.83484 7.61905 9.83484H11.8924C11.8176 9.54408 11.7778 9.23925 11.7778 8.92513V7.10568Z"/>
  </mask>
  <path d="M18.9409 9.83484L16.6251 9.23881C16.4409 9.95474 16.5981 10.7157 17.051 11.2999C17.5039 11.8842 18.2016 12.2261 18.9409 12.2261V9.83484ZM27.2431 18.137H24.8518C24.8518 18.8763 25.1937 19.574 25.778 20.0269C26.3623 20.4798 27.1232 20.637 27.8391 20.4528L27.2431 18.137ZM27.2431 25.1855L27.8391 22.8697C27.1232 22.6854 26.3623 22.8426 25.778 23.2956C25.1937 23.7485 24.8518 24.4462 24.8518 25.1855H27.2431ZM19.0555 32.5779L16.6643 32.5779C16.6643 33.2121 16.9162 33.8203 17.3647 34.2688C17.8131 34.7172 18.4213 34.9692 19.0555 34.9692V32.5779ZM19.0555 30.7585L21.4468 30.7585V30.7585H19.0555ZM11.7778 32.5779L11.7778 34.9692C12.412 34.9692 13.0202 34.7172 13.4686 34.2688C13.9171 33.8203 14.169 33.2121 14.169 32.5779H11.7778ZM7.61905 32.5779L7.61906 30.1866H7.61905V32.5779ZM4.5 25.3001V22.9088C3.17934 22.9088 2.10873 23.9795 2.10873 25.3001H4.5ZM9.04861 21.6612H11.4399H9.04861ZM4.5 18.0223H2.10873C2.10873 19.343 3.17934 20.4136 4.5 20.4136L4.5 18.0223ZM11.8924 9.83484V12.2261C12.6317 12.2261 13.3294 11.8842 13.7823 11.2999C14.2352 10.7156 14.3925 9.95474 14.2082 9.2388L11.8924 9.83484ZM15.4167 1.07553C12.0863 1.07553 9.3865 3.77532 9.3865 7.10568H14.169C14.169 6.41665 14.7276 5.85807 15.4167 5.85807V1.07553ZM21.4468 7.10568C21.4468 3.77532 18.747 1.07553 15.4167 1.07553V5.85807C16.1057 5.85807 16.6643 6.41665 16.6643 7.10568H21.4468ZM21.4468 8.92513V7.10568H16.6643V8.92513H21.4468ZM21.2567 10.4309C21.3812 9.94704 21.4468 9.442 21.4468 8.92513H16.6643C16.6643 9.0365 16.6503 9.14112 16.6251 9.23881L21.2567 10.4309ZM24.124 7.44357H18.9409V12.2261H24.124V7.44357ZM29.6343 12.9539C29.6343 9.91062 27.1673 7.44357 24.124 7.44357V12.2261C24.5259 12.2261 24.8518 12.5519 24.8518 12.9539H29.6343ZM29.6343 18.137V12.9539H24.8518V18.137H29.6343ZM28.1528 15.6311C27.6359 15.6311 27.1309 15.6967 26.647 15.8212L27.8391 20.4528C27.9368 20.4276 28.0414 20.4136 28.1528 20.4136V15.6311ZM29.9722 15.6311H28.1528V20.4136H29.9722V15.6311ZM36.0024 21.6612C36.0024 18.3309 33.3026 15.6311 29.9722 15.6311V20.4136C30.6613 20.4136 31.2198 20.9722 31.2198 21.6612H36.0024ZM29.9722 27.6914C33.3026 27.6914 36.0024 24.9916 36.0024 21.6612H31.2198C31.2198 22.3503 30.6613 22.9088 29.9722 22.9088V27.6914ZM28.1528 27.6914H29.9722V22.9088H28.1528V27.6914ZM26.647 27.5013C27.1309 27.6258 27.6359 27.6914 28.1528 27.6914V22.9088C28.0414 22.9088 27.9368 22.8948 27.8391 22.8697L26.647 27.5013ZM29.6343 29.4588V25.1855H24.8518V29.4588H29.6343ZM24.124 34.9692C27.1673 34.9692 29.6343 32.5021 29.6343 29.4588H24.8518C24.8518 29.8608 24.5259 30.1866 24.124 30.1866V34.9692ZM19.0555 34.9692H24.124V30.1866H19.0555V34.9692ZM16.6643 30.7585L16.6643 32.5779L21.4468 32.5779L21.4468 30.7585L16.6643 30.7585ZM15.4167 29.5108C16.1057 29.5108 16.6643 30.0694 16.6643 30.7585H21.4468C21.4468 27.4281 18.747 24.7283 15.4167 24.7283V29.5108ZM14.169 30.7585C14.169 30.0694 14.7276 29.5108 15.4167 29.5108V24.7283C12.0863 24.7283 9.3865 27.4281 9.3865 30.7585H14.169ZM14.169 32.5779V30.7585H9.3865V32.5779H14.169ZM7.61904 34.9692L11.7778 34.9692L11.7778 30.1866L7.61906 30.1866L7.61904 34.9692ZM2.10873 29.4588C2.10873 32.5021 4.57578 34.9692 7.61905 34.9692V30.1866C7.21711 30.1866 6.89127 29.8608 6.89127 29.4588H2.10873ZM2.10873 25.3001V29.4588H6.89127V25.3001H2.10873ZM5.40973 22.9088H4.5V27.6914H5.40973V22.9088ZM6.65734 21.6612C6.65734 22.3503 6.09877 22.9088 5.40973 22.9088V27.6914C8.74009 27.6914 11.4399 24.9916 11.4399 21.6612H6.65734ZM5.40973 20.4136C6.09877 20.4136 6.65734 20.9722 6.65734 21.6612H11.4399C11.4399 18.3309 8.7401 15.6311 5.40973 15.6311V20.4136ZM4.5 20.4136H5.40973V15.6311H4.5V20.4136ZM2.10873 12.9539V18.0223H6.89127V12.9539H2.10873ZM7.61905 7.44357C4.57578 7.44357 2.10873 9.91062 2.10873 12.9539H6.89127C6.89127 12.5519 7.21711 12.2261 7.61905 12.2261V7.44357ZM11.8924 7.44357H7.61905V12.2261H11.8924V7.44357ZM9.3865 8.92513C9.3865 9.442 9.45208 9.94704 9.57661 10.4309L14.2082 9.2388C14.1831 9.14112 14.169 9.03651 14.169 8.92513H9.3865ZM9.3865 7.10568V8.92513H14.169V7.10568H9.3865Z" fill="#2160FD" mask="url(#path-1-outside-1_144_2673)"/>
</svg>