<svg xmlns="http://www.w3.org/2000/svg" width="35" height="36" viewBox="0 0 35 36" fill="none">
  <path d="M27.413 15.8613L30.5 16.6473L30.4999 19.2176L27.4019 20.0247L25.9763 23.4715L27.9032 25.7473L25.3065 28.3473C25.3065 28.3473 23.6146 26.828 23.041 26.4174L19.5995 27.8444L18.8146 30.9473H16.2179L15.4349 27.8433M19.5388 8.02793L18.7306 4.94727H16.1932L15.3727 8.06873L11.9389 9.51801L9.72597 7.54727L7.12922 10.1473L9.01624 12.4728M9.01225 12.4155L7.58702 15.8613L4.5 16.6473L4.50013 19.2176L7.59806 20.0247" stroke="#2160FD" stroke-width="2.3" stroke-linecap="round" stroke-linejoin="round"/>
  <path d="M23.1273 9.03113L23.9404 9.8443C24.2521 9.53262 24.3582 9.0702 24.2136 8.65382L23.1273 9.03113ZM8.58386 23.5745L8.20655 24.6609C8.62294 24.8055 9.08535 24.6994 9.39704 24.3877L8.58386 23.5745ZM1.96785 30.8015L0.919267 31.2737C1.07443 31.6183 1.38897 31.8646 1.76068 31.9327C2.13239 32.0008 2.51382 31.8819 2.78103 31.6147L1.96785 30.8015ZM4.91735 27.852L5.73053 27.0389C5.51486 26.8232 5.22235 26.702 4.91735 26.702C4.61235 26.702 4.31985 26.8232 4.10418 27.0389L4.91735 27.852ZM7.99947 30.9342L8.81264 31.7473C9.02831 31.5317 9.14947 31.2391 9.14947 30.9342C9.14947 30.6292 9.02831 30.3366 8.81264 30.121L7.99947 30.9342ZM5.23119 33.7024L4.41801 32.8893C4.13373 33.1735 4.01854 33.5857 4.11424 33.9762C4.20993 34.3666 4.5026 34.6788 4.88612 34.7994L5.23119 33.7024ZM11.8169 26.7102L11.0037 25.897C10.683 26.2178 10.5807 26.6971 10.7427 27.1208L11.8169 26.7102ZM26.2629 12.2641L26.6735 11.1899C26.2498 11.028 25.7705 11.1302 25.4498 11.451L26.2629 12.2641ZM33.0321 5.09299L34.0807 4.6208C33.9256 4.27624 33.611 4.02989 33.2393 3.96181C32.8676 3.89373 32.4862 4.01261 32.219 4.27982L33.0321 5.09299ZM30.0826 8.04249L29.2695 8.85567C29.7186 9.30477 30.4467 9.30477 30.8958 8.85567L30.0826 8.04249ZM27.0005 4.96038L26.1874 4.1472C25.9717 4.36287 25.8505 4.65538 25.8505 4.96038C25.8505 5.26538 25.9717 5.55788 26.1874 5.77355L27.0005 4.96038ZM29.7688 2.1921L30.582 3.00527C30.8663 2.72098 30.9815 2.30887 30.8858 1.91838C30.7901 1.52789 30.4974 1.21573 30.1139 1.09509L29.7688 2.1921ZM23.9833 7.2806C23.9833 4.97021 25.8563 3.09727 28.1667 3.09727V0.797266C24.586 0.797266 21.6833 3.69995 21.6833 7.2806H23.9833ZM24.2136 8.65382C24.0647 8.22517 23.9833 7.76361 23.9833 7.2806H21.6833C21.6833 8.02395 21.8089 8.74042 22.0409 9.40844L24.2136 8.65382ZM9.39704 24.3877L23.9404 9.8443L22.3141 8.21796L7.77069 22.7614L9.39704 24.3877ZM6.83333 24.4306C7.31634 24.4306 7.7779 24.512 8.20655 24.6609L8.96117 22.4882C8.29315 22.2562 7.57669 22.1306 6.83333 22.1306V24.4306ZM2.65 28.6139C2.65 26.3035 4.52294 24.4306 6.83333 24.4306V22.1306C3.25269 22.1306 0.35 25.0333 0.35 28.6139H2.65ZM3.01644 30.3293C2.78138 29.8073 2.65 29.2275 2.65 28.6139H0.35C0.35 29.5595 0.553145 30.4607 0.919267 31.2737L3.01644 30.3293ZM4.10418 27.0389L1.15468 29.9884L2.78103 31.6147L5.73053 28.6652L4.10418 27.0389ZM8.81264 30.121L5.73053 27.0389L4.10418 28.6652L7.18629 31.7473L8.81264 30.121ZM6.04436 34.5156L8.81264 31.7473L7.18629 30.121L4.41801 32.8893L6.04436 34.5156ZM6.83333 32.7973C6.3935 32.7973 5.97161 32.7298 5.57625 32.6054L4.88612 34.7994C5.50219 34.9932 6.1567 35.0973 6.83333 35.0973V32.7973ZM11.0167 28.6139C11.0167 30.9243 9.14373 32.7973 6.83333 32.7973V35.0973C10.414 35.0973 13.3167 32.1946 13.3167 28.6139H11.0167ZM10.7427 27.1208C10.9193 27.583 11.0167 28.0858 11.0167 28.6139H13.3167C13.3167 27.8007 13.1664 27.0199 12.8911 26.2996L10.7427 27.1208ZM25.4498 11.451L11.0037 25.897L12.63 27.5234L27.0761 13.0773L25.4498 11.451ZM28.1667 11.4639C27.6385 11.4639 27.1357 11.3666 26.6735 11.1899L25.8523 13.3383C26.5726 13.6137 27.3535 13.7639 28.1667 13.7639V11.4639ZM32.35 7.2806C32.35 9.59099 30.4771 11.4639 28.1667 11.4639V13.7639C31.7473 13.7639 34.65 10.8612 34.65 7.2806H32.35ZM31.9836 5.56519C32.2186 6.08718 32.35 6.667 32.35 7.2806H34.65C34.65 6.33504 34.4469 5.43384 34.0807 4.6208L31.9836 5.56519ZM30.8958 8.85567L33.8453 5.90617L32.219 4.27982L29.2695 7.22932L30.8958 8.85567ZM26.1874 5.77355L29.2695 8.85567L30.8958 7.22932L27.8137 4.1472L26.1874 5.77355ZM28.9556 1.37893L26.1874 4.1472L27.8137 5.77355L30.582 3.00527L28.9556 1.37893ZM28.1667 3.09727C28.6065 3.09727 29.0284 3.16475 29.4237 3.28911L30.1139 1.09509C29.4978 0.901306 28.8433 0.797266 28.1667 0.797266V3.09727Z" fill="#2160FD"/>
</svg>