<svg xmlns="http://www.w3.org/2000/svg" width="33" height="33" viewBox="0 0 33 33" fill="none">
  <path d="M13.632 2.02761L3.80718 7.37432C2.39914 8.14059 2.41964 10.169 3.84288 10.9067L13.739 16.0358C15.4703 16.9331 17.5297 16.9331 19.261 16.0358L29.1571 10.9067C30.5804 10.169 30.6009 8.14059 29.1928 7.37432L19.368 2.02761C17.5798 1.05445 15.4202 1.05445 13.632 2.02761Z" stroke="#2160FD" stroke-width="2.3" stroke-linecap="round" stroke-linejoin="round"/>
  <path d="M29 21.9668L29.2487 22.1053C30.6415 22.8809 30.6114 24.8947 29.196 25.6283L19.261 30.7775C17.5297 31.6748 15.4703 31.6748 13.739 30.7775L3.53238 25.4875C2.24134 24.8183 2.22274 22.9783 3.5 22.2832V22.2832" stroke="#2160FD" stroke-width="2.3" stroke-linecap="round" stroke-linejoin="round"/>
  <path d="M29 14.4668L29.2487 14.6053C30.6415 15.3809 30.6114 17.3947 29.196 18.1283L19.261 23.2775C17.5297 24.1748 15.4703 24.1748 13.739 23.2775L3.53238 17.9875C2.24134 17.3183 2.22274 15.4783 3.5 14.7832V14.7832" stroke="#2160FD" stroke-width="2.3" stroke-linecap="round" stroke-linejoin="round"/>
</svg>