<svg width="43" height="43" viewBox="0 0 43 43" fill="none" xmlns="http://www.w3.org/2000/svg">
<g id="handshake_black_24dp 1" clip-path="url(#clip0_6_632)">
<g id="Group">
<path id="Vector" d="M28.9625 19.0735C28.28 19.756 27.1425 19.756 26.46 19.0735L18.6375 11.2685L6.3 23.5885L5.145 22.486C3.0975 20.4385 3.0975 17.1135 5.145 15.066L12.565 7.64595C14.6125 5.59845 17.9375 5.59845 19.985 7.64595L28.9625 16.606C29.645 17.2885 29.645 18.391 28.9625 19.0735ZM30.1875 15.3635C31.5525 16.7285 31.5525 18.951 30.1875 20.316C27.965 22.5385 25.62 20.701 25.235 20.316L18.655 13.736L8.9075 23.4835C8.225 24.166 8.225 25.2685 8.9075 25.951C9.59 26.6335 10.6925 26.6335 11.3925 25.951L19.4775 17.866L20.72 19.1085L12.635 27.1935C11.9525 27.876 11.9525 28.9785 12.635 29.661C13.3175 30.3435 14.42 30.3435 15.12 29.661L23.205 21.576L24.4475 22.8185L16.3625 30.9035C15.68 31.586 15.68 32.6885 16.3625 33.371C17.045 34.0535 18.1475 34.0535 18.83 33.371L26.915 25.286L28.1575 26.5285L20.0725 34.6135C19.39 35.296 19.39 36.3985 20.0725 37.081C20.755 37.7635 21.8575 37.7635 22.54 37.081L37.1 22.486C39.1475 20.4385 39.1475 17.1135 37.1 15.066L29.68 7.64595C27.6675 5.63345 24.4125 5.59845 22.365 7.54095L30.1875 15.3635Z" fill="url(#paint0_linear_6_632)"/>
</g>
</g>
<defs>
<linearGradient id="paint0_linear_6_632" x1="3.60938" y1="21.8513" x2="38.6356" y2="21.8513" gradientUnits="userSpaceOnUse">
<stop stop-color="#0E2BB7"/>
<stop offset="1" stop-color="#4D6BFF"/>
</linearGradient>
<clipPath id="clip0_6_632">
<rect width="42" height="42" fill="white" transform="translate(0.125 0.852051)"/>
</clipPath>
</defs>
</svg>
