<svg width="43" height="43" viewBox="0 0 43 43" fill="none" xmlns="http://www.w3.org/2000/svg">
<g id="timeline_black_24dp 1" clip-path="url(#clip0_6_651)">
<rect width="42" height="42" transform="translate(0.125 0.9375)" fill="white"/>
<g id="Group">
<g id="Group_2">
<g id="Group_3">
<path id="Vector" d="M40.3516 14.9453C40.3516 16.8703 38.7766 18.4453 36.8516 18.4453C36.5366 18.4453 36.2391 18.4103 35.9591 18.3228L29.7291 24.5353C29.8166 24.8153 29.8516 25.1303 29.8516 25.4453C29.8516 27.3703 28.2766 28.9453 26.3516 28.9453C24.4266 28.9453 22.8516 27.3703 22.8516 25.4453C22.8516 25.1303 22.8866 24.8153 22.9741 24.5353L18.5116 20.0728C18.2316 20.1603 17.9166 20.1953 17.6016 20.1953C17.2866 20.1953 16.9716 20.1603 16.6916 20.0728L8.72906 28.0528C8.81656 28.3328 8.85156 28.6303 8.85156 28.9453C8.85156 30.8703 7.27656 32.4453 5.35156 32.4453C3.42656 32.4453 1.85156 30.8703 1.85156 28.9453C1.85156 27.0203 3.42656 25.4453 5.35156 25.4453C5.66656 25.4453 5.96406 25.4803 6.24406 25.5678L14.2241 17.6053C14.1366 17.3253 14.1016 17.0103 14.1016 16.6953C14.1016 14.7703 15.6766 13.1953 17.6016 13.1953C19.5266 13.1953 21.1016 14.7703 21.1016 16.6953C21.1016 17.0103 21.0666 17.3253 20.9791 17.6053L25.4416 22.0678C25.7216 21.9803 26.0366 21.9453 26.3516 21.9453C26.6666 21.9453 26.9816 21.9803 27.2616 22.0678L33.4741 15.8378C33.3866 15.5578 33.3516 15.2603 33.3516 14.9453C33.3516 13.0203 34.9266 11.4453 36.8516 11.4453C38.7766 11.4453 40.3516 13.0203 40.3516 14.9453Z" fill="url(#paint0_linear_6_651)"/>
</g>
</g>
</g>
</g>
<defs>
<linearGradient id="paint0_linear_6_651" x1="1.85156" y1="21.9453" x2="40.3516" y2="21.9453" gradientUnits="userSpaceOnUse">
<stop stop-color="#0E2BB7"/>
<stop offset="1" stop-color="#4D6BFF"/>
</linearGradient>
<clipPath id="clip0_6_651">
<rect width="42" height="42" fill="white" transform="translate(0.125 0.9375)"/>
</clipPath>
</defs>
</svg>
