<svg xmlns="http://www.w3.org/2000/svg" width="29" height="29" viewBox="0 0 29 29" fill="none">
  <path d="M14.4976 8.29291C11.0598 8.29291 8.27534 11.0774 8.27534 14.5151C8.27534 17.9529 11.0598 20.7374 14.4976 20.7374C17.9353 20.7374 20.7198 17.9529 20.7198 14.5151C20.7198 11.0774 17.9353 8.29291 14.4976 8.29291ZM3.60867 19.1818H0.497559V25.404C0.497559 27.1151 1.89756 28.5151 3.60867 28.5151H9.83089V25.404H3.60867V19.1818ZM3.60867 3.62625H9.83089V0.515137H3.60867C1.89756 0.515137 0.497559 1.91514 0.497559 3.62625V9.84847H3.60867V3.62625ZM25.3864 0.515137H19.1642V3.62625H25.3864V9.84847H28.4976V3.62625C28.4976 1.91514 27.0976 0.515137 25.3864 0.515137ZM25.3864 25.404H19.1642V28.5151H25.3864C27.0976 28.5151 28.4976 27.1151 28.4976 25.404V19.1818H25.3864V25.404Z" fill="#EA443A"/>
</svg>