<svg xmlns="http://www.w3.org/2000/svg" width="47" height="46" viewBox="0 0 47 46" fill="none">
  <g clip-path="url(#clip0_593_897)">
    <path d="M32.2265 19.9813C31.4815 20.7263 30.2397 20.7263 29.4947 19.9813L20.9552 11.461L7.48702 24.9101L6.22617 23.7065C3.99102 21.4714 3.99102 17.8416 6.22617 15.6065L14.3262 7.50646C16.5614 5.27131 20.1911 5.27131 22.4262 7.50646L32.2265 17.2876C32.9716 18.0327 32.9716 19.2362 32.2265 19.9813ZM33.5638 15.9313C35.0539 17.4214 35.0539 19.8475 33.5638 21.3376C31.1376 23.7638 28.5777 21.7579 28.1574 21.3376L20.9743 14.1546L10.3335 24.7954C9.58845 25.5405 9.58845 26.744 10.3335 27.4891C11.0785 28.2341 12.2821 28.2341 13.0462 27.4891L21.8722 18.6631L23.2286 20.0195L14.4026 28.8455C13.6576 29.5905 13.6576 30.7941 14.4026 31.5391C15.1477 32.2842 16.3512 32.2842 17.1154 31.5391L25.9413 22.7131L27.2977 24.0695L18.4717 32.8955C17.7267 33.6405 17.7267 34.8441 18.4717 35.5891C19.2168 36.3342 20.4203 36.3342 21.1654 35.5891L29.9914 26.7631L31.3477 28.1195L22.5218 36.9455C21.7767 37.6905 21.7767 38.8941 22.5218 39.6391C23.2668 40.3842 24.4703 40.3842 25.2154 39.6391L41.1098 23.7065C43.345 21.4714 43.345 17.8416 41.1098 15.6065L33.0098 7.50646C30.8128 5.30952 27.2595 5.27131 25.0244 7.39184L33.5638 15.9313Z" fill="#F7C333"/>
  </g>
  <defs>
    <clipPath id="clip0_593_897">
      <rect width="45.8492" height="45.8492" fill="white" transform="translate(0.749512 0.0986328)"/>
    </clipPath>
  </defs>
</svg>