<svg xmlns="http://www.w3.org/2000/svg" width="35" height="35" viewBox="0 0 35 35" fill="none">
  <g clip-path="url(#clip0_593_957)">
    <path d="M33.4028 11.9715C33.4028 13.5468 32.1139 14.8357 30.5387 14.8357C30.2809 14.8357 30.0375 14.807 29.8083 14.7354L24.7102 19.8192C24.7818 20.0484 24.8104 20.3061 24.8104 20.5639C24.8104 22.1392 23.5216 23.428 21.9463 23.428C20.371 23.428 19.0822 22.1392 19.0822 20.5639C19.0822 20.3061 19.1108 20.0484 19.1824 19.8192L15.5307 16.1675C15.3016 16.2391 15.0438 16.2677 14.786 16.2677C14.5282 16.2677 14.2705 16.2391 14.0413 16.1675L7.52546 22.6977C7.59706 22.9268 7.62571 23.1703 7.62571 23.428C7.62571 25.0033 6.33685 26.2922 4.76158 26.2922C3.18632 26.2922 1.89746 25.0033 1.89746 23.428C1.89746 21.8528 3.18632 20.5639 4.76158 20.5639C5.01935 20.5639 5.2628 20.5926 5.49193 20.6642L12.0221 14.1483C11.9505 13.9191 11.9219 13.6614 11.9219 13.4036C11.9219 11.8283 13.2107 10.5395 14.786 10.5395C16.3613 10.5395 17.6501 11.8283 17.6501 13.4036C17.6501 13.6614 17.6215 13.9191 17.5499 14.1483L21.2016 17.8C21.4308 17.7284 21.6885 17.6998 21.9463 17.6998C22.2041 17.6998 22.4619 17.7284 22.691 17.8L27.7748 12.7019C27.7032 12.4728 27.6746 12.2293 27.6746 11.9715C27.6746 10.3963 28.9634 9.10742 30.5387 9.10742C32.1139 9.10742 33.4028 10.3963 33.4028 11.9715Z" fill="#C200FF"/>
  </g>
  <defs>
    <clipPath id="clip0_593_957">
      <rect width="34.3695" height="34.3695" fill="white" transform="translate(0.483398 0.513672)"/>
    </clipPath>
  </defs>
</svg>