<svg xmlns="http://www.w3.org/2000/svg" width="29" height="29" viewBox="0 0 29 29" fill="none">
  <g clip-path="url(#clip0_593_937)">
    <path d="M9.06803 23.8499H13.7347C13.7347 25.1333 12.6847 26.1833 11.4014 26.1833C10.118 26.1833 9.06803 25.1333 9.06803 23.8499ZM6.7347 22.6833H16.068V20.3499H6.7347V22.6833ZM20.1514 11.5999C20.1514 16.0566 17.048 18.4366 15.753 19.1833H7.0497C5.7547 18.4366 2.65137 16.0566 2.65137 11.5999C2.65137 6.76993 6.57137 2.84993 11.4014 2.84993C16.2314 2.84993 20.1514 6.76993 20.1514 11.5999ZM25.833 9.11493L24.2347 9.84993L25.833 10.5849L26.568 12.1833L27.303 10.5849L28.9014 9.84993L27.303 9.11493L26.568 7.5166L25.833 9.11493ZM23.068 7.5166L24.1647 5.11327L26.568 4.0166L24.1647 2.91993L23.068 0.516602L21.9714 2.91993L19.568 4.0166L21.9714 5.11327L23.068 7.5166Z" fill="#68A6FC"/>
  </g>
  <defs>
    <clipPath id="clip0_593_937">
      <rect width="28" height="28" fill="white" transform="translate(0.901367 0.516602)"/>
    </clipPath>
  </defs>
</svg>