<svg xmlns="http://www.w3.org/2000/svg" width="36" height="35" viewBox="0 0 36 35" fill="none">
  <g clip-path="url(#clip0_593_873)">
    <path d="M33.8589 11.9715C33.8589 13.5468 32.57 14.8357 30.9947 14.8357C30.737 14.8357 30.4935 14.807 30.2644 14.7354L25.1662 19.8192C25.2379 20.0484 25.2665 20.3061 25.2665 20.5639C25.2665 22.1392 23.9776 23.428 22.4024 23.428C20.8271 23.428 19.5382 22.1392 19.5382 20.5639C19.5382 20.3061 19.5669 20.0484 19.6385 19.8192L15.9867 16.1675C15.7576 16.2391 15.4998 16.2677 15.2421 16.2677C14.9843 16.2677 14.7265 16.2391 14.4974 16.1675L7.98152 22.6977C8.05312 22.9268 8.08176 23.1703 8.08176 23.428C8.08176 25.0033 6.7929 26.2922 5.21764 26.2922C3.64237 26.2922 2.35352 25.0033 2.35352 23.428C2.35352 21.8528 3.64237 20.5639 5.21764 20.5639C5.47541 20.5639 5.71886 20.5926 5.94799 20.6642L12.4782 14.1483C12.4066 13.9191 12.3779 13.6614 12.3779 13.4036C12.3779 11.8283 13.6668 10.5395 15.2421 10.5395C16.8173 10.5395 18.1062 11.8283 18.1062 13.4036C18.1062 13.6614 18.0775 13.9191 18.0059 14.1483L21.6577 17.8C21.8868 17.7284 22.1446 17.6998 22.4024 17.6998C22.6601 17.6998 22.9179 17.7284 23.147 17.8L28.2309 12.7019C28.1593 12.4728 28.1306 12.2293 28.1306 11.9715C28.1306 10.3963 29.4195 9.10742 30.9947 9.10742C32.57 9.10742 33.8589 10.3963 33.8589 11.9715Z" fill="#F8A830"/>
  </g>
  <defs>
    <clipPath id="clip0_593_873">
      <rect width="34.3695" height="34.3695" fill="white" transform="translate(0.947266 0.513672)"/>
    </clipPath>
  </defs>
</svg>